<?xml version="1.0" encoding="UTF-8" standalone="no"?><svg xmlns="http://www.w3.org/2000/svg" xmlns:xlink="http://www.w3.org/1999/xlink" contentScriptType="application/ecmascript" contentStyleType="text/css" height="919.4357px" preserveAspectRatio="none" style="width:1402px;height:919px;" version="1.1" viewBox="0 0 1402 919" width="1402.1944px" zoomAndPan="magnify"><defs><filter height="300%" id="f1rc0f4d2t06rg" width="300%" x="-1" y="-1"><feGaussianBlur result="blurOut" stdDeviation="4.38871473354232"/><feColorMatrix in="blurOut" result="blurOut2" type="matrix" values="0 0 0 0 0 0 0 0 0 0 0 0 0 0 0 0 0 0 .4 0"/><feOffset dx="8.77742946708464" dy="8.77742946708464" in="blurOut2" result="blurOut3"/><feBlend in="SourceGraphic" in2="blurOut3" mode="normal"/></filter></defs><g><ellipse cx="546.395" cy="35.1097" fill="#000000" filter="url(#f1rc0f4d2t06rg)" rx="21.9436" ry="21.9436" style="stroke:none;stroke-width:2.19435736677116;"/><g id="CheckReset"><rect fill="#FEFECE" filter="url(#f1rc0f4d2t06rg)" height="140.9532" rx="27.4295" ry="27.4295" style="stroke:#A80036;stroke-width:3.29153605015674;" width="717.5549" x="187.6176" y="190.9091"/><line style="stroke:#A80036;stroke-width:3.29153605015674;" x1="187.6176" x2="905.1724" y1="248.6138" y2="248.6138"/><text fill="#000000" font-family="sans-serif" font-size="30.721" lengthAdjust="spacing" textLength="190.9091" x="450.9404" y="230.3968">CheckReset</text><text fill="#000000" font-family="sans-serif" font-size="26.3323" lengthAdjust="spacing" textLength="673.6677" x="198.5893" y="284.0278">Check to see if button is pressed during power-on</text><text fill="#000000" font-family="sans-serif" font-size="26.3323" lengthAdjust="spacing" textLength="585.8934" x="198.5893" y="314.6803">if so then make AP open (with no password)</text></g><g id="ResetWiFi"><rect fill="#FEFECE" filter="url(#f1rc0f4d2t06rg)" height="109.7179" rx="27.4295" ry="27.4295" style="stroke:#A80036;stroke-width:3.29153605015674;" width="201.8809" x="78.9969" y="500.3135"/><line style="stroke:#A80036;stroke-width:3.29153605015674;" x1="78.9969" x2="280.8777" y1="558.0182" y2="558.0182"/><text fill="#000000" font-family="sans-serif" font-size="30.721" lengthAdjust="spacing" textLength="157.9937" x="100.9404" y="539.8012">ResetWiFi</text></g><ellipse cx="35.1097" cy="833.8558" filter="url(#f1rc0f4d2t06rg)" rx="21.9436" ry="21.9436" style="stroke:#000000;stroke-width:2.19435736677116;fill:none;"/><ellipse cx="36.2069" cy="834.953" fill="#000000" rx="13.1661" ry="13.1661" style="stroke:none;stroke-width:2.19435736677116;"/><g id="GameModeSelect"><rect fill="#FEFECE" filter="url(#f1rc0f4d2t06rg)" height="110.3007" rx="27.4295" ry="27.4295" style="stroke:#A80036;stroke-width:3.29153605015674;" width="607.837" x="501.4107" y="500.3135"/><line style="stroke:#A80036;stroke-width:3.29153605015674;" x1="501.4107" x2="1109.2476" y1="558.0182" y2="558.0182"/><text fill="#000000" font-family="sans-serif" font-size="30.721" lengthAdjust="spacing" textLength="278.6834" x="665.9875" y="539.8012">GameModeSelect</text><text fill="#000000" font-family="sans-serif" font-size="26.3323" lengthAdjust="spacing" textLength="563.9498" x="512.3824" y="593.4322">Await game selection and settings via WiFi</text></g><g id="GameModeDomination"><rect fill="#FEFECE" filter="url(#f1rc0f4d2t06rg)" height="109.7179" rx="27.4295" ry="27.4295" style="stroke:#A80036;stroke-width:3.29153605015674;" width="405.9561" x="134.953" y="778.9969"/><line style="stroke:#A80036;stroke-width:3.29153605015674;" x1="134.953" x2="540.9091" y1="836.7016" y2="836.7016"/><text fill="#000000" font-family="sans-serif" font-size="30.721" lengthAdjust="spacing" textLength="362.069" x="156.8966" y="818.4846">GameModeDomination</text></g><g id="GameModeSabotage"><rect fill="#FEFECE" filter="url(#f1rc0f4d2t06rg)" height="109.7179" rx="27.4295" ry="27.4295" style="stroke:#A80036;stroke-width:3.29153605015674;" width="373.0408" x="618.8088" y="778.9969"/><line style="stroke:#A80036;stroke-width:3.29153605015674;" x1="618.8088" x2="991.8495" y1="836.7016" y2="836.7016"/><text fill="#000000" font-family="sans-serif" font-size="30.721" lengthAdjust="spacing" textLength="329.1536" x="640.7524" y="818.4846">GameModeSabotage</text></g><g id="GameModeHeist"><rect fill="#FEFECE" filter="url(#f1rc0f4d2t06rg)" height="109.7179" rx="27.4295" ry="27.4295" style="stroke:#A80036;stroke-width:3.29153605015674;" width="302.8213" x="1068.652" y="778.9969"/><line style="stroke:#A80036;stroke-width:3.29153605015674;" x1="1068.652" x2="1371.4734" y1="836.7016" y2="836.7016"/><text fill="#000000" font-family="sans-serif" font-size="30.721" lengthAdjust="spacing" textLength="258.9342" x="1090.5956" y="818.4846">GameModeHeist</text></g><!--MD5=[70a8e39d19759d7df3ece45d172d8d68]
link *start to CheckReset--><path d="M546.395,57.7577 C546.395,85.1038 546.395,135.168 546.395,178.511 " fill="none" id="*start-to-CheckReset" style="stroke:#A80036;stroke-width:2.19435736677116;"/><polygon fill="#A80036" points="546.395,189.948,555.1724,170.1987,546.395,178.9762,537.6176,170.1987,546.395,189.948" style="stroke:#A80036;stroke-width:2.19435736677116;"/><!--MD5=[3b403aa81356fb83773fe96737395ab3]
link CheckReset to ResetWiFi--><path d="M459.5489,331.9668 C397.6702,380.8768 315.2897,445.9922 255.9959,492.8592 " fill="none" id="CheckReset-to-ResetWiFi" style="stroke:#A80036;stroke-width:2.19435736677116;"/><polygon fill="#A80036" points="246.6853,500.2191,267.6203,494.8526,255.2909,493.413,256.7305,481.0836,246.6853,500.2191" style="stroke:#A80036;stroke-width:2.19435736677116;"/><text fill="#000000" font-family="sans-serif" font-size="28.5266" lengthAdjust="spacing" textLength="92.163" x="377.4295" y="425.8521">button</text><!--MD5=[b5b49e76ac9b97f9455ed154ec228889]
link ResetWiFi to *end--><path d="M152.013,610.253 C121.5742,667.9031 74.0124,757.9822 50.0195,803.4234 " fill="none" id="ResetWiFi-to-*end" style="stroke:#A80036;stroke-width:2.19435736677116;"/><polygon fill="#A80036" points="44.7245,813.4518,61.7075,800.0857,49.8473,803.7494,46.1837,791.8892,44.7245,813.4518" style="stroke:#A80036;stroke-width:2.19435736677116;"/><!--MD5=[30b12a23448aff52ebc4131521025800]
link CheckReset to GameModeSelect--><path d="M607.758,331.9668 C651.1207,380.4752 708.7335,444.9213 750.5492,491.6984 " fill="none" id="CheckReset-to-GameModeSelect" style="stroke:#A80036;stroke-width:2.19435736677116;"/><polygon fill="#A80036" points="758.1658,500.2191,751.5445,479.6465,750.8523,492.0404,738.4584,491.3482,758.1658,500.2191" style="stroke:#A80036;stroke-width:2.19435736677116;"/><text fill="#000000" font-family="sans-serif" font-size="28.5266" lengthAdjust="spacing" textLength="136.0502" x="702.1944" y="425.8521">no button</text><!--MD5=[93e71d536a5a4788181e337f3f2d135c]
link GameModeSelect to GameModeDomination--><path d="M546.711,610.1981 C504.2107,626.5614 462.7329,647.9433 427.8997,675.8621 C398.1201,699.7308 376.273,736.3074 361.5687,768.0235 " fill="none" id="GameModeSelect-to-GameModeDomination" style="stroke:#A80036;stroke-width:2.19435736677116;"/><polygon fill="#A80036" points="356.8552,778.5676,372.9291,764.1211,361.3335,768.5514,356.9031,756.9558,356.8552,778.5676" style="stroke:#A80036;stroke-width:2.19435736677116;"/><text fill="#000000" font-family="sans-serif" font-size="28.5266" lengthAdjust="spacing" textLength="155.7994" x="430.094" y="704.5355">game start</text><!--MD5=[5ff05878d2b1ed01737e5de6491bad73]
link GameModeDomination to GameModeSelect--><path d="M467.7668,778.7423 C509.9182,759.8645 556.2608,737.2573 596.8652,713.1661 C644.5508,684.8732 694.4219,647.9038 733.4266,617.0774 " fill="none" id="GameModeDomination-to-GameModeSelect" style="stroke:#A80036;stroke-width:2.19435736677116;"/><polygon fill="#A80036" points="742.0834,610.1959,721.1616,615.6138,733.4945,617.0232,732.0852,629.356,742.0834,610.1959" style="stroke:#A80036;stroke-width:2.19435736677116;"/><!--MD5=[26d88244db88e7deaa9cf77f477091ab]
link GameModeSelect to GameModeSabotage--><path d="M782.7053,610.253 C776.0893,655.2197 775.6044,719.9169 781.2527,767.7714 " fill="none" id="GameModeSelect-to-GameModeSabotage" style="stroke:#A80036;stroke-width:2.19435736677116;"/><polygon fill="#A80036" points="782.7295,778.937,788.8413,758.2073,781.2907,768.0599,771.438,760.5093,782.7295,778.937" style="stroke:#A80036;stroke-width:2.19435736677116;"/><!--MD5=[4b7fc9887a14fb75ff7d5d8add94ff2c]
link GameModeSabotage to GameModeSelect--><path d="M829.2564,778.937 C836.2806,734.0182 836.8094,669.3249 830.8429,621.4288 " fill="none" id="GameModeSabotage-to-GameModeSelect" style="stroke:#A80036;stroke-width:2.19435736677116;"/><polygon fill="#A80036" points="829.2828,610.253,823.3202,631.0261,830.7997,621.1194,840.7064,628.5989,829.2828,610.253" style="stroke:#A80036;stroke-width:2.19435736677116;"/><!--MD5=[46394b56cec3e5ec22e972746d80025a]
link GameModeSelect to GameModeHeist--><path d="M885.2937,610.253 C955.579,656.7382 1057.7439,724.3071 1130.6997,772.5584 " fill="none" id="GameModeSelect-to-GameModeHeist" style="stroke:#A80036;stroke-width:2.19435736677116;"/><polygon fill="#A80036" points="1140.3439,778.937,1128.7145,760.7207,1131.1929,772.8839,1119.0296,775.3623,1140.3439,778.937" style="stroke:#A80036;stroke-width:2.19435736677116;"/><!--MD5=[4492b1c3a665fb4260bc10b72498a738]
link GameModeHeist to GameModeSelect--><path d="M1178.6574,778.9181 C1150.8439,746.0837 1111.8853,704.7508 1070.8464,675.8621 C1037.4549,652.3561 998.6542,631.874 961.1966,614.8524 " fill="none" id="GameModeHeist-to-GameModeSelect" style="stroke:#A80036;stroke-width:2.19435736677116;"/><polygon fill="#A80036" points="950.6724,610.1433,965.1108,626.2245,960.6864,614.6267,972.2842,610.2022,950.6724,610.1433" style="stroke:#A80036;stroke-width:2.19435736677116;"/><text fill="#000000" font-family="sans-serif" font-size="28.5266" lengthAdjust="spacing" textLength="153.605" x="1114.7335" y="704.5355">game over</text><!--MD5=[6f920efd9c019819e3ae34979c2c324d]
@startuml
scale 1400 width
[*] - -> CheckReset
CheckReset : Check to see if button is pressed during power-on
CheckReset : if so then make AP open (with no password)
CheckReset - -> ResetWiFi : button
ResetWiFi - -> [*]

CheckReset - -> GameModeSelect : no button
GameModeSelect : Await game selection and settings via WiFi
GameModeSelect - -> GameModeDomination : game start
GameModeSelect - -> GameModeSabotage
GameModeSelect - -> GameModeHeist
GameModeDomination - -> GameModeSelect
GameModeSabotage - -> GameModeSelect 
GameModeHeist - -> GameModeSelect : game over
@enduml

PlantUML version 1.2021.4(Sun Apr 04 08:49:39 UTC 2021)
(GPL source distribution)
Java Runtime: Java(TM) SE Runtime Environment
JVM: Java HotSpot(TM) 64-Bit Server VM
Default Encoding: UTF-8
Language: en
Country: US
--></g></svg>