<?xml version="1.0" encoding="UTF-8" standalone="no"?><svg xmlns="http://www.w3.org/2000/svg" xmlns:xlink="http://www.w3.org/1999/xlink" contentScriptType="application/ecmascript" contentStyleType="text/css" height="873.6623px" preserveAspectRatio="none" style="width:1400px;height:873px;" version="1.1" viewBox="0 0 1400 873" width="1400.9729px" zoomAndPan="magnify"><defs><filter height="300%" id="fvd8mhsh5qr1n" width="300%" x="-1" y="-1"><feGaussianBlur result="blurOut" stdDeviation="3.8915913829047946"/><feColorMatrix in="blurOut" result="blurOut2" type="matrix" values="0 0 0 0 0 0 0 0 0 0 0 0 0 0 0 0 0 0 .4 0"/><feOffset dx="7.783182765809589" dy="7.783182765809589" in="blurOut2" result="blurOut3"/><feBlend in="SourceGraphic" in2="blurOut3" mode="normal"/></filter></defs><g><ellipse cx="615.8443" cy="31.1327" fill="#000000" filter="url(#fvd8mhsh5qr1n)" rx="19.458" ry="19.458" style="stroke:none;stroke-width:1.9457956914523973;"/><g id="CheckReset"><rect fill="#FEFECE" filter="url(#fvd8mhsh5qr1n)" height="124.987" rx="24.3224" ry="24.3224" style="stroke:#A80036;stroke-width:2.918693537178596;" width="636.2752" x="297.7067" y="200.417"/><line style="stroke:#A80036;stroke-width:2.918693537178596;" x1="297.7067" x2="933.9819" y1="251.5853" y2="251.5853"/><text fill="#000000" font-family="sans-serif" font-size="27.2411" lengthAdjust="spacing" textLength="169.2842" x="531.2022" y="235.4318">CheckReset</text><text fill="#000000" font-family="sans-serif" font-size="23.3495" lengthAdjust="spacing" textLength="597.3593" x="307.4357" y="282.9879">Check to see if button is pressed during power-on</text><text fill="#000000" font-family="sans-serif" font-size="23.3495" lengthAdjust="spacing" textLength="519.5274" x="307.4357" y="310.1682">if so then make AP open (with no password)</text></g><g id="ResetWiFi"><rect fill="#FEFECE" filter="url(#fvd8mhsh5qr1n)" height="124.987" rx="24.3224" ry="24.3224" style="stroke:#A80036;stroke-width:2.918693537178596;" width="465.0452" x="13.6206" y="474.7741"/><line style="stroke:#A80036;stroke-width:2.918693537178596;" x1="13.6206" x2="478.6657" y1="525.9425" y2="525.9425"/><text fill="#000000" font-family="sans-serif" font-size="27.2411" lengthAdjust="spacing" textLength="140.0973" x="176.0945" y="509.789">ResetWiFi</text><text fill="#000000" font-family="sans-serif" font-size="23.3495" lengthAdjust="spacing" textLength="412.5087" x="23.3495" y="557.3451">Wait for user to connect to wifi and</text><text fill="#000000" font-family="sans-serif" font-size="23.3495" lengthAdjust="spacing" textLength="426.1293" x="23.3495" y="584.5254">set a password for the access point</text></g><ellipse cx="189.7151" cy="797.7762" filter="url(#fvd8mhsh5qr1n)" rx="19.458" ry="19.458" style="stroke:#000000;stroke-width:1.9457956914523973;fill:none;"/><ellipse cx="190.688" cy="798.7491" fill="#000000" rx="11.6748" ry="11.6748" style="stroke:none;stroke-width:1.9457956914523973;"/><g id="GameModeSelect"><rect fill="#FEFECE" filter="url(#fvd8mhsh5qr1n)" height="97.8066" rx="24.3224" ry="24.3224" style="stroke:#A80036;stroke-width:2.918693537178596;" width="538.9854" x="603.1967" y="488.3947"/><line style="stroke:#A80036;stroke-width:2.918693537178596;" x1="603.1967" x2="1142.1821" y1="539.5631" y2="539.5631"/><text fill="#000000" font-family="sans-serif" font-size="27.2411" lengthAdjust="spacing" textLength="247.1161" x="749.1313" y="523.4095">GameModeSelect</text><text fill="#000000" font-family="sans-serif" font-size="23.3495" lengthAdjust="spacing" textLength="500.0695" x="612.9256" y="570.9656">Await game selection and settings via WiFi</text></g><g id="GameModeDomination"><rect fill="#FEFECE" filter="url(#fvd8mhsh5qr1n)" height="97.2898" rx="24.3224" ry="24.3224" style="stroke:#A80036;stroke-width:2.918693537178596;" width="359.9722" x="278.2488" y="749.1313"/><line style="stroke:#A80036;stroke-width:2.918693537178596;" x1="278.2488" x2="638.221" y1="800.2997" y2="800.2997"/><text fill="#000000" font-family="sans-serif" font-size="27.2411" lengthAdjust="spacing" textLength="321.0563" x="297.7067" y="784.1462">GameModeDomination</text></g><g id="GameModeSabotage"><rect fill="#FEFECE" filter="url(#fvd8mhsh5qr1n)" height="97.2898" rx="24.3224" ry="24.3224" style="stroke:#A80036;stroke-width:2.918693537178596;" width="330.7853" x="707.2967" y="749.1313"/><line style="stroke:#A80036;stroke-width:2.918693537178596;" x1="707.2967" x2="1038.082" y1="800.2997" y2="800.2997"/><text fill="#000000" font-family="sans-serif" font-size="27.2411" lengthAdjust="spacing" textLength="291.8694" x="726.7547" y="784.1462">GameModeSabotage</text></g><g id="GameModeHeist"><rect fill="#FEFECE" filter="url(#fvd8mhsh5qr1n)" height="97.2898" rx="24.3224" ry="24.3224" style="stroke:#A80036;stroke-width:2.918693537178596;" width="268.5198" x="1106.1849" y="749.1313"/><line style="stroke:#A80036;stroke-width:2.918693537178596;" x1="1106.1849" x2="1374.7047" y1="800.2997" y2="800.2997"/><text fill="#000000" font-family="sans-serif" font-size="27.2411" lengthAdjust="spacing" textLength="229.6039" x="1125.6428" y="784.1462">GameModeHeist</text></g><!--MD5=[70a8e39d19759d7df3ece45d172d8d68]
link *start to CheckReset--><path d="M615.8443,50.9429 C615.8443,80.5949 615.8443,141.5216 615.8443,190.114 " fill="none" id="*start-to-CheckReset" style="stroke:#A80036;stroke-width:1.9457956914523973;"/><polygon fill="#A80036" points="615.8443,200.2788,623.6275,182.7666,615.8443,190.5498,608.0612,182.7666,615.8443,200.2788" style="stroke:#A80036;stroke-width:1.9457956914523973;"/><text fill="#000000" font-family="sans-serif" font-size="25.2953" lengthAdjust="spacing" textLength="116.7477" x="617.7901" y="134.3901">Power on</text><!--MD5=[3b403aa81356fb83773fe96737395ab3]
link CheckReset to ResetWiFi--><path d="M532.8756,325.3254 C474.6049,367.9558 396.6913,424.9559 336.79,468.7772 " fill="none" id="CheckReset-to-ResetWiFi" style="stroke:#A80036;stroke-width:1.9457956914523973;"/><polygon fill="#A80036" points="328.8336,474.599,347.5635,470.5438,336.6866,468.8559,338.3745,457.979,328.8336,474.599" style="stroke:#A80036;stroke-width:1.9457956914523973;"/><text fill="#000000" font-family="sans-serif" font-size="25.2953" lengthAdjust="spacing" textLength="81.7234" x="456.2891" y="408.7473">button</text><!--MD5=[b5b49e76ac9b97f9455ed154ec228889]
link ResetWiFi to *end--><path d="M232.7697,599.8538 C221.0424,653.2351 204.5325,728.3853 195.7552,768.3371 " fill="none" id="ResetWiFi-to-*end" style="stroke:#A80036;stroke-width:1.9457956914523973;"/><polygon fill="#A80036" points="193.5964,778.1638,204.9564,762.7299,195.6842,768.6615,189.7527,759.3893,193.5964,778.1638" style="stroke:#A80036;stroke-width:1.9457956914523973;"/><text fill="#000000" font-family="sans-serif" font-size="25.2953" lengthAdjust="spacing" textLength="120.6393" x="222.7936" y="683.1045">Power off</text><!--MD5=[30b12a23448aff52ebc4131521025800]
link CheckReset to GameModeSelect--><path d="M673.4846,325.3254 C717.6659,371.8513 778.1023,435.4905 820.7872,480.4384 " fill="none" id="CheckReset-to-GameModeSelect" style="stroke:#A80036;stroke-width:1.9457956914523973;"/><polygon fill="#A80036" points="828.01,488.0445,821.5954,469.986,821.3108,480.9894,810.3074,480.7048,828.01,488.0445" style="stroke:#A80036;stroke-width:1.9457956914523973;"/><text fill="#000000" font-family="sans-serif" font-size="25.2953" lengthAdjust="spacing" textLength="120.6393" x="761.779" y="408.7473">no button</text><!--MD5=[93e71d536a5a4788181e337f3f2d135c]
link GameModeSelect to GameModeDomination--><path d="M668.5209,585.7468 C622.2402,603.0079 575.689,626.3322 538.0125,657.6789 C511.9972,679.3236 492.6424,711.7789 479.5161,739.7941 " fill="none" id="GameModeSelect-to-GameModeDomination" style="stroke:#A80036;stroke-width:1.9457956914523973;"/><polygon fill="#A80036" points="475.3015,749.1027,489.6132,736.3581,479.3132,740.2394,475.4319,729.9393,475.3015,749.1027" style="stroke:#A80036;stroke-width:1.9457956914523973;"/><text fill="#000000" font-family="sans-serif" font-size="25.2953" lengthAdjust="spacing" textLength="138.1515" x="539.9583" y="683.1045">game start</text><!--MD5=[5ff05878d2b1ed01737e5de6491bad73]
link GameModeDomination to GameModeSelect--><path d="M575.7142,749.079 C612.6493,732.5524 652.8884,712.5872 687.8388,690.7575 C733.349,662.3311 780.017,623.9291 815.0744,592.8684 " fill="none" id="GameModeDomination-to-GameModeSelect" style="stroke:#A80036;stroke-width:1.9457956914523973;"/><polygon fill="#A80036" points="822.8245,585.953,804.5751,591.8023,815.5643,592.4294,814.9372,603.4186,822.8245,585.953" style="stroke:#A80036;stroke-width:1.9457956914523973;"/><!--MD5=[26d88244db88e7deaa9cf77f477091ab]
link GameModeSelect to GameModeSabotage--><path d="M852.9746,586.0951 C846.6468,629.1789 846.2149,693.0068 851.6767,738.9253 " fill="none" id="GameModeSelect-to-GameModeSabotage" style="stroke:#A80036;stroke-width:1.9457956914523973;"/><polygon fill="#A80036" points="853.0174,749.0198,858.427,730.6354,851.7364,739.3756,842.9962,732.6849,853.0174,749.0198" style="stroke:#A80036;stroke-width:1.9457956914523973;"/><!--MD5=[4b7fc9887a14fb75ff7d5d8add94ff2c]
link GameModeSabotage to GameModeSelect--><path d="M893.5172,749.0198 C900.2457,706.0314 900.7322,642.2099 894.9765,596.2093 " fill="none" id="GameModeSabotage-to-GameModeSelect" style="stroke:#A80036;stroke-width:1.9457956914523973;"/><polygon fill="#A80036" points="893.5639,586.0951,888.2774,604.5154,894.9094,595.7306,903.6942,602.3625,893.5639,586.0951" style="stroke:#A80036;stroke-width:1.9457956914523973;"/><!--MD5=[46394b56cec3e5ec22e972746d80025a]
link GameModeSelect to GameModeHeist--><path d="M940.1423,586.0951 C1003.6453,630.4456 1098.6215,696.7793 1164.7008,742.9295 " fill="none" id="GameModeSelect-to-GameModeHeist" style="stroke:#A80036;stroke-width:1.9457956914523973;"/><polygon fill="#A80036" points="1173.4199,749.0198,1163.5189,732.6118,1165.4435,743.4493,1154.606,745.374,1173.4199,749.0198" style="stroke:#A80036;stroke-width:1.9457956914523973;"/><!--MD5=[4492b1c3a665fb4260bc10b72498a738]
link GameModeHeist to GameModeSelect--><path d="M1207.0004,748.5585 C1184.7561,719.6084 1153.5105,683.3212 1119.8054,657.6789 C1084.9426,631.1558 1043.2053,608.3608 1004.0442,590.0431 " fill="none" id="GameModeHeist-to-GameModeSelect" style="stroke:#A80036;stroke-width:1.9457956914523973;"/><polygon fill="#A80036" points="995.2064,585.9647,1007.848,600.3676,1004.0407,590.0399,1014.3684,586.2327,995.2064,585.9647" style="stroke:#A80036;stroke-width:1.9457956914523973;"/><text fill="#000000" font-family="sans-serif" font-size="25.2953" lengthAdjust="spacing" textLength="136.2057" x="1156.7755" y="683.1045">game over</text><!--MD5=[fe8aa009e3b83cb29057ff5fab803cc0]
@startuml
scale 1400 width
[*] - -> CheckReset : Power on
CheckReset : Check to see if button is pressed during power-on
CheckReset : if so then make AP open (with no password)
CheckReset - -> ResetWiFi : button
ResetWiFi : Wait for user to connect to wifi and
ResetWiFi : set a password for the access point
ResetWiFi - -> [*] : Power off

CheckReset - -> GameModeSelect : no button
GameModeSelect : Await game selection and settings via WiFi
GameModeSelect - -> GameModeDomination : game start
GameModeSelect - -> GameModeSabotage
GameModeSelect - -> GameModeHeist
GameModeDomination - -> GameModeSelect
GameModeSabotage - -> GameModeSelect 
GameModeHeist - -> GameModeSelect : game over
@enduml

PlantUML version 1.2021.5beta3(Unknown compile time)
(GPL source distribution)
Java Runtime: Java(TM) SE Runtime Environment
JVM: Java HotSpot(TM) 64-Bit Server VM
Default Encoding: UTF-8
Language: en
Country: US
--></g></svg>