<?xml version="1.0" encoding="UTF-8" standalone="no"?><svg xmlns="http://www.w3.org/2000/svg" xmlns:xlink="http://www.w3.org/1999/xlink" contentScriptType="application/ecmascript" contentStyleType="text/css" height="1712.5227px" preserveAspectRatio="none" style="width:1400px;height:1712px;" version="1.1" viewBox="0 0 1400 1712" width="1400.8469px" zoomAndPan="magnify"><defs><filter height="300%" id="fn50a905xk61h" width="300%" x="-1" y="-1"><feGaussianBlur result="blurOut" stdDeviation="3.3877797943133694"/><feColorMatrix in="blurOut" result="blurOut2" type="matrix" values="0 0 0 0 0 0 0 0 0 0 0 0 0 0 0 0 0 0 .4 0"/><feOffset dx="6.775559588626739" dy="6.775559588626739" in="blurOut2" result="blurOut3"/><feBlend in="SourceGraphic" in2="blurOut3" mode="normal"/></filter></defs><g><ellipse cx="697.0357" cy="27.1022" fill="#000000" filter="url(#fn50a905xk61h)" rx="16.9389" ry="16.9389" style="stroke:none;stroke-width:1.6938898971566847;"/><g id="GameModeSelect"><rect fill="#FEFECE" filter="url(#fn50a905xk61h)" height="85.1444" rx="21.1736" ry="21.1736" style="stroke:#A80036;stroke-width:2.540834845735027;" width="409.9214" x="492.075" y="145.6745"/><line style="stroke:#A80036;stroke-width:2.540834845735027;" x1="492.075" x2="901.9964" y1="190.2185" y2="190.2185"/><text fill="#000000" font-family="sans-serif" font-size="23.7145" lengthAdjust="spacing" textLength="215.124" x="589.4737" y="176.1563">GameModeSelect</text><text fill="#000000" font-family="sans-serif" font-size="20.3267" lengthAdjust="spacing" textLength="376.0436" x="500.5445" y="217.5557">"Domination" game selected via WiFi</text></g><rect fill="#FEFECE" filter="url(#fn50a905xk61h)" height="1361.0405" rx="21.1736" ry="21.1736" style="stroke:#A80036;stroke-width:2.540834845735027;" width="1369.51" x="11.8572" y="332.0024"/><rect fill="#FFFFFF" height="1306.3332" rx="21.1736" ry="21.1736" style="stroke:#FFFFFF;stroke-width:1.6938898971566847;" width="1359.3466" x="16.9389" y="381.6281"/><line style="stroke:#A80036;stroke-width:2.540834845735027;" x1="11.8572" x2="1381.3672" y1="376.5464" y2="376.5464"/><text fill="#000000" font-family="sans-serif" font-size="23.7145" lengthAdjust="spacing" textLength="279.4918" x="556.8663" y="362.4842">GameModeDomination</text><ellipse cx="885.0575" cy="412.1181" fill="#000000" filter="url(#fn50a905xk61h)" rx="16.9389" ry="16.9389" style="stroke:none;stroke-width:1.6938898971566847;"/><g id="GameModeDomination.Idle"><rect fill="#FEFECE" filter="url(#fn50a905xk61h)" height="108.806" rx="21.1736" ry="21.1736" style="stroke:#A80036;stroke-width:2.540834845735027;" width="271.0224" x="749.5463" y="491.7309"/><line style="stroke:#A80036;stroke-width:2.540834845735027;" x1="749.5463" x2="1020.5687" y1="536.275" y2="536.275"/><text fill="#000000" font-family="sans-serif" font-size="23.7145" lengthAdjust="spacing" textLength="44.0411" x="863.0369" y="522.2127">Idle</text><text fill="#000000" font-family="sans-serif" font-size="20.3267" lengthAdjust="spacing" textLength="237.1446" x="758.0157" y="563.6121">Decrement game timer</text><text fill="#000000" font-family="sans-serif" font-size="20.3267" lengthAdjust="spacing" textLength="181.2462" x="758.0157" y="587.2736">Await button push</text></g><g id="GameModeDomination.CapturingRed"><rect fill="#FEFECE" filter="url(#fn50a905xk61h)" height="132.4675" rx="21.1736" ry="21.1736" style="stroke:#A80036;stroke-width:2.540834845735027;" width="594.5554" x="98.2456" y="689.9161"/><line style="stroke:#A80036;stroke-width:2.540834845735027;" x1="98.2456" x2="692.801" y1="734.4601" y2="734.4601"/><text fill="#000000" font-family="sans-serif" font-size="23.7145" lengthAdjust="spacing" textLength="167.6951" x="311.6757" y="720.3978">CapturingRed</text><text fill="#000000" font-family="sans-serif" font-size="20.3267" lengthAdjust="spacing" textLength="560.6776" x="106.7151" y="761.7972">Button held down while timer counts down 10 seconds</text><text fill="#000000" font-family="sans-serif" font-size="20.3267" lengthAdjust="spacing" textLength="487.8403" x="106.7151" y="785.4587">Button released prematurely causes exit to idle</text><text fill="#000000" font-family="sans-serif" font-size="20.3267" lengthAdjust="spacing" textLength="237.1446" x="106.7151" y="809.1203">Decrement game timer</text></g><g id="GameModeDomination.CapturedRed"><rect fill="#FEFECE" filter="url(#fn50a905xk61h)" height="108.806" rx="21.1736" ry="21.1736" style="stroke:#A80036;stroke-width:2.540834845735027;" width="298.1246" x="246.461" y="911.8156"/><line style="stroke:#A80036;stroke-width:2.540834845735027;" x1="246.461" x2="544.5856" y1="956.3596" y2="956.3596"/><text fill="#000000" font-family="sans-serif" font-size="23.7145" lengthAdjust="spacing" textLength="160.9195" x="315.0635" y="942.2974">CapturedRed</text><text fill="#000000" font-family="sans-serif" font-size="20.3267" lengthAdjust="spacing" textLength="264.2468" x="254.9304" y="983.6968">Increment Red team timer</text><text fill="#000000" font-family="sans-serif" font-size="20.3267" lengthAdjust="spacing" textLength="237.1446" x="254.9304" y="1007.3583">Decrement game timer</text></g><g id="GameModeDomination.RecaptureBlue"><rect fill="#FEFECE" filter="url(#fn50a905xk61h)" height="132.4675" rx="21.1736" ry="21.1736" style="stroke:#A80036;stroke-width:2.540834845735027;" width="623.3515" x="234.6038" y="1110.0008"/><line style="stroke:#A80036;stroke-width:2.540834845735027;" x1="234.6038" x2="857.9552" y1="1154.5448" y2="1154.5448"/><text fill="#000000" font-family="sans-serif" font-size="23.7145" lengthAdjust="spacing" textLength="179.5523" x="456.5033" y="1140.4825">RecaptureBlue</text><text fill="#000000" font-family="sans-serif" font-size="20.3267" lengthAdjust="spacing" textLength="560.6776" x="243.0732" y="1181.8819">Button held down while timer counts down 10 seconds</text><text fill="#000000" font-family="sans-serif" font-size="20.3267" lengthAdjust="spacing" textLength="589.4737" x="243.0732" y="1205.5434">Button released prematurely causes exit to Captured Red</text><text fill="#000000" font-family="sans-serif" font-size="20.3267" lengthAdjust="spacing" textLength="237.1446" x="243.0732" y="1229.2049">Decrement game timer</text></g><g id="GameModeDomination.CapturedBlue"><rect fill="#FEFECE" filter="url(#fn50a905xk61h)" height="108.806" rx="21.1736" ry="21.1736" style="stroke:#A80036;stroke-width:2.540834845735027;" width="303.2063" x="394.6763" y="1331.9003"/><line style="stroke:#A80036;stroke-width:2.540834845735027;" x1="394.6763" x2="697.8826" y1="1376.4443" y2="1376.4443"/><text fill="#000000" font-family="sans-serif" font-size="23.7145" lengthAdjust="spacing" textLength="166.0012" x="463.2789" y="1362.3821">CapturedBlue</text><text fill="#000000" font-family="sans-serif" font-size="20.3267" lengthAdjust="spacing" textLength="269.3285" x="403.1458" y="1403.7815">Increment Blue team timer</text><text fill="#000000" font-family="sans-serif" font-size="20.3267" lengthAdjust="spacing" textLength="237.1446" x="403.1458" y="1427.443">Decrement game timer</text></g><g id="GameModeDomination.CapturingBlue"><rect fill="#FEFECE" filter="url(#fn50a905xk61h)" height="132.4675" rx="21.1736" ry="21.1736" style="stroke:#A80036;stroke-width:2.540834845735027;" width="594.5554" x="723.291" y="689.9161"/><line style="stroke:#A80036;stroke-width:2.540834845735027;" x1="723.291" x2="1317.8463" y1="734.4601" y2="734.4601"/><text fill="#000000" font-family="sans-serif" font-size="23.7145" lengthAdjust="spacing" textLength="172.7768" x="934.1803" y="720.3978">CapturingBlue</text><text fill="#000000" font-family="sans-serif" font-size="20.3267" lengthAdjust="spacing" textLength="560.6776" x="731.7604" y="761.7972">Button held down while timer counts down 10 seconds</text><text fill="#000000" font-family="sans-serif" font-size="20.3267" lengthAdjust="spacing" textLength="487.8403" x="731.7604" y="785.4587">Button released prematurely causes exit to idle</text><text fill="#000000" font-family="sans-serif" font-size="20.3267" lengthAdjust="spacing" textLength="237.1446" x="731.7604" y="809.1203">Decrement game timer</text></g><g id="GameModeDomination.RecaptureRed"><rect fill="#FEFECE" filter="url(#fn50a905xk61h)" height="132.4675" rx="21.1736" ry="21.1736" style="stroke:#A80036;stroke-width:2.540834845735027;" width="628.4332" x="32.1839" y="1530.0855"/><line style="stroke:#A80036;stroke-width:2.540834845735027;" x1="32.1839" x2="660.6171" y1="1574.6295" y2="1574.6295"/><text fill="#000000" font-family="sans-serif" font-size="23.7145" lengthAdjust="spacing" textLength="174.4707" x="259.1652" y="1560.5672">RecaptureRed</text><text fill="#000000" font-family="sans-serif" font-size="20.3267" lengthAdjust="spacing" textLength="560.6776" x="40.6534" y="1601.9666">Button held down while timer counts down 10 seconds</text><text fill="#000000" font-family="sans-serif" font-size="20.3267" lengthAdjust="spacing" textLength="594.5554" x="40.6534" y="1625.6281">Button released prematurely causes exit to Captured Blue</text><text fill="#000000" font-family="sans-serif" font-size="20.3267" lengthAdjust="spacing" textLength="237.1446" x="40.6534" y="1649.2896">Decrement game timer</text></g><g id="GameModeDomination.GameOver"><rect fill="#FEFECE" filter="url(#fn50a905xk61h)" height="132.4675" rx="21.1736" ry="21.1736" style="stroke:#A80036;stroke-width:2.540834845735027;" width="470.9014" x="691.954" y="1530.0855"/><line style="stroke:#A80036;stroke-width:2.540834845735027;" x1="691.954" x2="1162.8554" y1="1574.6295" y2="1574.6295"/><text fill="#000000" font-family="sans-serif" font-size="23.7145" lengthAdjust="spacing" textLength="128.7356" x="863.0369" y="1560.5672">GameOver</text><text fill="#000000" font-family="sans-serif" font-size="20.3267" lengthAdjust="spacing" textLength="437.0236" x="700.4235" y="1601.9666">The game timer has counted down to zero</text><text fill="#000000" font-family="sans-serif" font-size="20.3267" lengthAdjust="spacing" textLength="399.758" x="700.4235" y="1625.6281">Red timer has reached the set duration</text><text fill="#000000" font-family="sans-serif" font-size="20.3267" lengthAdjust="spacing" textLength="404.8397" x="700.4235" y="1649.2896">Blue timer has reached the set duration</text></g><!--MD5=[616122c7c618f2359c5f422ce5700dcf]
link *start*GameModeDomination to Idle--><path d="M885.0575,429.2857 C885.0575,442.7487 885.0575,463.172 885.0575,483.0904 " fill="none" id="*start*GameModeDomination-to-Idle" style="stroke:#A80036;stroke-width:1.6938898971566847;"/><polygon fill="#A80036" points="885.0575,491.5734,891.833,476.3284,885.0575,483.104,878.2819,476.3284,885.0575,491.5734" style="stroke:#A80036;stroke-width:1.6938898971566847;"/><!--MD5=[cd54f098eaf8c0442796e1b6faf927ac]
link Idle to CapturingRed--><path d="M760.2601,600.311 C698.1977,626.5121 622.4605,658.4825 556.1193,686.4893 " fill="none" id="Idle-to-CapturingRed" style="stroke:#A80036;stroke-width:1.6938898971566847;"/><polygon fill="#A80036" points="548.0767,689.8839,564.7566,690.1989,555.8798,686.5909,559.4878,677.714,548.0767,689.8839" style="stroke:#A80036;stroke-width:1.6938898971566847;"/><text fill="#000000" font-family="sans-serif" font-size="22.0206" lengthAdjust="spacing" textLength="135.5112" x="686.8724" y="652.7638">Red pressed</text><!--MD5=[a6841a8381ec6f2c7067417a6dd9c046]
link CapturingRed to Idle--><path d="M448.8165,689.5299 C469.7275,667.8752 495.2612,645.4921 522.565,630.6299 C589.4517,594.2214 671.6578,573.7423 740.8668,562.2442 " fill="none" id="CapturingRed-to-Idle" style="stroke:#A80036;stroke-width:1.6938898971566847;"/><polygon fill="#A80036" points="749.2397,560.8857,733.107,556.6366,740.8793,562.2408,735.2751,570.0131,749.2397,560.8857" style="stroke:#A80036;stroke-width:1.6938898971566847;"/><text fill="#000000" font-family="sans-serif" font-size="22.0206" lengthAdjust="spacing" textLength="93.1639" x="524.2589" y="652.7638">released</text><!--MD5=[11ae16ffea919090734929e31c3622a2]
link CapturingRed to CapturedRed--><path d="M395.5233,822.4917 C395.5233,848.0034 395.5233,877.1705 395.5233,902.3942 " fill="none" id="CapturingRed-to-CapturedRed" style="stroke:#A80036;stroke-width:1.6938898971566847;"/><polygon fill="#A80036" points="395.5233,911.4955,402.2989,896.2505,395.5233,903.026,388.7477,896.2505,395.5233,911.4955" style="stroke:#A80036;stroke-width:1.6938898971566847;"/><text fill="#000000" font-family="sans-serif" font-size="22.0206" lengthAdjust="spacing" textLength="147.3684" x="397.2172" y="874.6634">capture timer</text><!--MD5=[20724d04ec740275d947932e7caa581e]
link CapturedRed to RecaptureBlue--><path d="M372.6727,1020.477 C367.6774,1040.0956 366.5425,1061.8553 376.8905,1079.5107 C382.084,1088.3698 388.4394,1096.4649 395.6097,1103.8502 " fill="none" id="CapturedRed-to-RecaptureBlue" style="stroke:#A80036;stroke-width:1.6938898971566847;"/><polygon fill="#A80036" points="401.8144,1109.889,395.6123,1094.4018,395.7439,1103.983,386.1627,1104.1146,401.8144,1109.889" style="stroke:#A80036;stroke-width:1.6938898971566847;"/><text fill="#000000" font-family="sans-serif" font-size="22.0206" lengthAdjust="spacing" textLength="138.899" x="378.5844" y="1072.8485">Blue pressed</text><!--MD5=[dfdd4bddb83357edde4d573ac3f41ea1]
link RecaptureBlue to CapturedRed--><path d="M541.5451,1109.64 C537.6881,1089.4522 530.9261,1067.9737 519.1773,1050.7146 C513.2656,1042.0317 506.1174,1034.0145 498.273,1026.6698 " fill="none" id="RecaptureBlue-to-CapturedRed" style="stroke:#A80036;stroke-width:1.6938898971566847;"/><polygon fill="#A80036" points="491.5313,1020.6599,498.4035,1035.8616,497.8538,1026.2953,507.4201,1025.7455,491.5313,1020.6599" style="stroke:#A80036;stroke-width:1.6938898971566847;"/><text fill="#000000" font-family="sans-serif" font-size="22.0206" lengthAdjust="spacing" textLength="93.1639" x="536.1162" y="1072.8485">released</text><!--MD5=[d77195c9d74c58bd6eb8cd72e8b7ffca]
link RecaptureBlue to CapturedBlue--><path d="M546.2795,1242.5764 C546.2795,1268.0881 546.2795,1297.2552 546.2795,1322.4789 " fill="none" id="RecaptureBlue-to-CapturedBlue" style="stroke:#A80036;stroke-width:1.6938898971566847;"/><polygon fill="#A80036" points="546.2795,1331.5802,553.0551,1316.3352,546.2795,1323.1107,539.5039,1316.3352,546.2795,1331.5802" style="stroke:#A80036;stroke-width:1.6938898971566847;"/><text fill="#000000" font-family="sans-serif" font-size="22.0206" lengthAdjust="spacing" textLength="147.3684" x="547.9734" y="1294.7481">capture timer</text><!--MD5=[a39dc8114d988317ffa1e5850662ff71]
link Idle to CapturingBlue--><path d="M957.7033,600.3516 C967.2653,609.624 976.1955,619.8043 983.3031,630.6299 C993.2445,645.7699 1000.6231,663.6675 1006.0656,681.0757 " fill="none" id="Idle-to-CapturingBlue" style="stroke:#A80036;stroke-width:1.6938898971566847;"/><polygon fill="#A80036" points="1008.5844,689.5671,1010.7457,673.0248,1006.1763,681.4472,997.7538,676.8778,1008.5844,689.5671" style="stroke:#A80036;stroke-width:1.6938898971566847;"/><text fill="#000000" font-family="sans-serif" font-size="22.0206" lengthAdjust="spacing" textLength="138.899" x="1000.242" y="652.7638">Blue pressed</text><!--MD5=[38f78e282babde7191f315a906145e2c]
link CapturingBlue to Idle--><path d="M902.8857,689.7738 C893.8318,680.7064 885.9197,670.6057 879.9758,659.426 C871.8993,644.2319 870.0174,626.1716 871.0134,609.0464 " fill="none" id="CapturingBlue-to-Idle" style="stroke:#A80036;stroke-width:1.6938898971566847;"/><polygon fill="#A80036" points="871.7791,600.1958,863.7134,614.7993,871.0483,608.6337,877.214,615.9686,871.7791,600.1958" style="stroke:#A80036;stroke-width:1.6938898971566847;"/><text fill="#000000" font-family="sans-serif" font-size="22.0206" lengthAdjust="spacing" textLength="93.1639" x="881.6697" y="652.7638">released</text><!--MD5=[916d7605ca83aea2a63edeff05373c7e]
link CapturingBlue to CapturedBlue--><path d="M1042.391,822.0395 C1075.886,934.0496 1124.6972,1165.7856 1008.7114,1301.4103 C969.962,1346.7219 824.6652,1367.3501 707.1482,1376.7088 " fill="none" id="CapturingBlue-to-CapturedBlue" style="stroke:#A80036;stroke-width:1.6938898971566847;"/><polygon fill="#A80036" points="698.0215,1377.4168,713.7453,1382.9918,706.4656,1376.7612,712.6962,1369.4814,698.0215,1377.4168" style="stroke:#A80036;stroke-width:1.6938898971566847;"/><text fill="#000000" font-family="sans-serif" font-size="22.0206" lengthAdjust="spacing" textLength="147.3684" x="1083.2426" y="1072.8485">capture timer</text><!--MD5=[57a710961e7804187a3084411aeba4d3]
link CapturedBlue to RecaptureRed--><path d="M396.399,1440.4888 C384.5316,1449.1531 373.7771,1459.1877 365.0333,1470.7993 C354.1466,1485.2567 348.3739,1503.4087 345.54,1521.3179 " fill="none" id="CapturedBlue-to-RecaptureRed" style="stroke:#A80036;stroke-width:1.6938898971566847;"/><polygon fill="#A80036" points="344.3746,1530.0727,353.1026,1515.8551,345.4922,1521.6774,339.67,1514.067,344.3746,1530.0727" style="stroke:#A80036;stroke-width:1.6938898971566847;"/><text fill="#000000" font-family="sans-serif" font-size="22.0206" lengthAdjust="spacing" textLength="135.5112" x="366.7272" y="1492.9332">Red pressed</text><!--MD5=[b47edff00b6812a4a507051db9a27995]
link RecaptureRed to CapturedBlue--><path d="M472.2819,1529.8371 C483.8918,1520.7086 494.7276,1510.6254 503.9322,1499.5954 C516.1554,1484.9484 525.0618,1466.4054 531.4546,1448.6534 " fill="none" id="RecaptureRed-to-CapturedBlue" style="stroke:#A80036;stroke-width:1.6938898971566847;"/><polygon fill="#A80036" points="534.219,1440.5685,522.8726,1452.7987,531.4769,1448.5817,535.6939,1457.186,534.219,1440.5685" style="stroke:#A80036;stroke-width:1.6938898971566847;"/><text fill="#000000" font-family="sans-serif" font-size="22.0206" lengthAdjust="spacing" textLength="93.1639" x="524.2589" y="1492.9332">released</text><!--MD5=[0a29ccb67f4e6a9ab41210c7dab7b79e]
link RecaptureRed to CapturedRed--><path d="M302.1137,1529.8483 C242.6091,1434.3688 151.7026,1251.615 219.3587,1110.0008 C235.4507,1076.3178 263.842,1048.0467 293.1937,1025.806 " fill="none" id="RecaptureRed-to-CapturedRed" style="stroke:#A80036;stroke-width:1.6938898971566847;"/><polygon fill="#A80036" points="300.6688,1020.2822,284.3813,1023.8925,293.8572,1025.3153,292.4343,1034.7912,300.6688,1020.2822" style="stroke:#A80036;stroke-width:1.6938898971566847;"/><text fill="#000000" font-family="sans-serif" font-size="22.0206" lengthAdjust="spacing" textLength="147.3684" x="205.8076" y="1294.7481">capture timer</text><!--MD5=[4aae146bbcca512ab3d80e1bb232f199]
link CapturedBlue to GameOver--><path d="M643.4393,1440.4804 C691.3662,1466.468 749.7648,1498.1329 801.1117,1525.9745 " fill="none" id="CapturedBlue-to-GameOver" style="stroke:#A80036;stroke-width:1.6938898971566847;"/><polygon fill="#A80036" points="808.6342,1530.0534,798.4612,1516.8312,801.1885,1526.017,792.0028,1528.7443,808.6342,1530.0534" style="stroke:#A80036;stroke-width:1.6938898971566847;"/><text fill="#000000" font-family="sans-serif" font-size="22.0206" lengthAdjust="spacing" textLength="101.6334" x="751.2402" y="1492.9332">Blue wins</text><!--MD5=[9a4969006cbb401788e39a4010a02989]
link CapturedRed to GameOver--><path d="M545.0463,970.807 C653.1047,981.5649 793.5535,1014.7381 873.2002,1110.0008 C970.3533,1226.2016 958.159,1416.6998 942.0247,1520.8229 " fill="none" id="CapturedRed-to-GameOver" style="stroke:#A80036;stroke-width:1.6938898971566847;"/><polygon fill="#A80036" points="940.656,1529.396,949.7489,1515.409,941.9904,1521.0324,936.367,1513.2739,940.656,1529.396" style="stroke:#A80036;stroke-width:1.6938898971566847;"/><text fill="#000000" font-family="sans-serif" font-size="22.0206" lengthAdjust="spacing" textLength="98.2456" x="949.4253" y="1294.7481">Red wins</text><!--MD5=[9c326ed1a4436e38d99d5a2a620d93a7]
link Idle to GameOver--><path d="M1020.982,550.2972 C1163.2382,561.1703 1366.1222,603.1652 1366.1222,754.2839 C1366.1222,754.2839 1366.1222,754.2839 1366.1222,1387.7987 C1366.1222,1487.2961 1272.6296,1538.9702 1171.9635,1565.7711 " fill="none" id="Idle-to-GameOver" style="stroke:#A80036;stroke-width:1.6938898971566847;"/><polygon fill="#A80036" points="1163.4584,1567.973,1179.9149,1570.7124,1171.6577,1565.8508,1176.5193,1557.5936,1163.4584,1567.973" style="stroke:#A80036;stroke-width:1.6938898971566847;"/><!--MD5=[c69315803817170e0ef6227b429115a2]
link *start to GameModeSelect--><path d="M697.0357,44.4765 C697.0357,65.8178 697.0357,104.989 697.0357,136.7698 " fill="none" id="*start-to-GameModeSelect" style="stroke:#A80036;stroke-width:1.6938898971566847;"/><polygon fill="#A80036" points="697.0357,145.517,703.8113,130.272,697.0357,137.0475,690.2601,130.272,697.0357,145.517" style="stroke:#A80036;stroke-width:1.6938898971566847;"/><!--MD5=[93e71d536a5a4788181e337f3f2d135c]
link GameModeSelect to GameModeDomination--><path d="M697.0357,230.4131 C697.0357,253.5668 697.0357,285.4933 697.0357,323.2874 " fill="none" id="GameModeSelect-to-GameModeDomination" style="stroke:#A80036;stroke-width:1.6938898971566847;"/><polygon fill="#A80036" points="697.0357,331.9618,703.8113,316.7168,697.0357,323.4923,690.2601,316.7168,697.0357,331.9618" style="stroke:#A80036;stroke-width:1.6938898971566847;"/><!--MD5=[c91a9b4f777a598b1b4fdf60013797f3]
@startuml
scale 1400 width
[*] - -> GameModeSelect
GameModeSelect : "Domination" game selected via WiFi
GameModeSelect - -> GameModeDomination

state GameModeDomination {
  [*] - -> Idle
  Idle : Decrement game timer
  Idle : Await button push

  Idle - -> CapturingRed : Red pressed
  CapturingRed : Button held down while timer counts down 10 seconds
  CapturingRed : Button released prematurely causes exit to idle
  CapturingRed : Decrement game timer
  CapturingRed - -> Idle : released
  CapturingRed - -> CapturedRed : capture timer
  CapturedRed : Increment Red team timer
  CapturedRed : Decrement game timer
  CapturedRed - -> RecaptureBlue : Blue pressed
  RecaptureBlue - -> CapturedRed : released
  RecaptureBlue - -> CapturedBlue : capture timer
  RecaptureBlue : Button held down while timer counts down 10 seconds
  RecaptureBlue : Button released prematurely causes exit to Captured Red
  RecaptureBlue : Decrement game timer


  Idle - -> CapturingBlue : Blue pressed
  CapturingBlue : Button held down while timer counts down 10 seconds
  CapturingBlue : Button released prematurely causes exit to idle
  CapturingBlue : Decrement game timer
  CapturingBlue  - -> Idle : released
  CapturingBlue - -> CapturedBlue : capture timer
  CapturedBlue : Increment Blue team timer
  CapturedBlue : Decrement game timer
  CapturedBlue - -> RecaptureRed : Red pressed
  RecaptureRed - -> CapturedBlue : released
  RecaptureRed - -> CapturedRed : capture timer
  RecaptureRed : Button held down while timer counts down 10 seconds
  RecaptureRed : Button released prematurely causes exit to Captured Blue
  RecaptureRed : Decrement game timer

  GameOver : The game timer has counted down to zero
  GameOver : Red timer has reached the set duration
  GameOver : Blue timer has reached the set duration
  CapturedBlue - -> GameOver : Blue wins
  CapturedRed - -> GameOver : Red wins
  Idle - -> GameOver
}
@enduml

PlantUML version 1.2021.4(Sun Apr 04 08:49:39 UTC 2021)
(GPL source distribution)
Java Runtime: Java(TM) SE Runtime Environment
JVM: Java HotSpot(TM) 64-Bit Server VM
Default Encoding: UTF-8
Language: en
Country: US
--></g></svg>