<?xml version="1.0" encoding="UTF-8" standalone="no"?><svg xmlns="http://www.w3.org/2000/svg" xmlns:xlink="http://www.w3.org/1999/xlink" contentScriptType="application/ecmascript" contentStyleType="text/css" height="1439.8779px" preserveAspectRatio="none" style="width:1401px;height:1439px;background:#FFFFFF;" version="1.1" viewBox="0 0 1401 1439" width="1401.4242px" zoomAndPan="magnify"><defs><filter height="300%" id="fvzr2822f9b4v" width="300%" x="-1" y="-1"><feGaussianBlur result="blurOut" stdDeviation="2.8484231943031535"/><feColorMatrix in="blurOut" result="blurOut2" type="matrix" values="0 0 0 0 0 0 0 0 0 0 0 0 0 0 0 0 0 0 .4 0"/><feOffset dx="5.696846388606307" dy="5.696846388606307" in="blurOut2" result="blurOut3"/><feBlend in="SourceGraphic" in2="blurOut3" mode="normal"/></filter></defs><g><ellipse cx="697.1516" cy="22.7874" fill="#000000" filter="url(#fvzr2822f9b4v)" rx="14.2421" ry="14.2421" style="stroke:none;stroke-width:1.4242115971515767;"/><g id="GameModeSelect"><rect fill="#FEFECE" filter="url(#fvzr2822f9b4v)" height="71.5889" rx="17.8026" ry="17.8026" style="stroke:#A80036;stroke-width:2.136317395727365;" width="344.6592" x="524.822" y="122.4822"/><line style="stroke:#A80036;stroke-width:2.136317395727365;" x1="524.822" x2="869.4812" y1="159.9345" y2="159.9345"/><text fill="#000000" font-family="sans-serif" font-size="19.939" lengthAdjust="spacing" textLength="180.8749" x="606.7141" y="148.1111">GameModeSelect</text><text fill="#000000" font-family="sans-serif" font-size="17.0905" lengthAdjust="spacing" textLength="316.175" x="531.943" y="182.9194">"Domination" game selected via WiFi</text></g><rect fill="#FEFECE" filter="url(#fvzr2822f9b4v)" height="1144.354" rx="17.8026" ry="17.8026" style="stroke:#A80036;stroke-width:2.136317395727365;" width="1374.3642" x="9.9695" y="279.1455"/><rect fill="#FFFFFF" height="1098.3564" rx="17.8026" ry="17.8026" style="stroke:#FFFFFF;stroke-width:1.4242115971515767;" width="1365.8189" x="14.2421" y="320.8704"/><line style="stroke:#A80036;stroke-width:2.136317395727365;" x1="9.9695" x2="1384.3337" y1="316.5978" y2="316.5978"/><text fill="#000000" font-family="sans-serif" font-size="19.939" lengthAdjust="spacing" textLength="234.9949" x="579.6541" y="304.7743">GameModeDomination</text><ellipse cx="727.7721" cy="346.5062" fill="#000000" filter="url(#fvzr2822f9b4v)" rx="14.2421" ry="14.2421" style="stroke:none;stroke-width:1.4242115971515767;"/><g id="GameModeDomination.Idle"><rect fill="#FEFECE" filter="url(#fvzr2822f9b4v)" height="91.4833" rx="17.8026" ry="17.8026" style="stroke:#A80036;stroke-width:2.136317395727365;" width="227.8739" x="613.8352" y="413.4442"/><line style="stroke:#A80036;stroke-width:2.136317395727365;" x1="613.8352" x2="841.7091" y1="450.8965" y2="450.8965"/><text fill="#000000" font-family="sans-serif" font-size="19.939" lengthAdjust="spacing" textLength="37.0295" x="709.2574" y="439.073">Idle</text><text fill="#000000" font-family="sans-serif" font-size="17.0905" lengthAdjust="spacing" textLength="199.3896" x="620.9563" y="473.8814">Decrement game timer</text><text fill="#000000" font-family="sans-serif" font-size="17.0905" lengthAdjust="spacing" textLength="152.3906" x="620.9563" y="493.7758">Await button push</text></g><g id="GameModeDomination.CapturingRed"><rect fill="#FEFECE" filter="url(#fvzr2822f9b4v)" height="111.3778" rx="17.8026" ry="17.8026" style="stroke:#A80036;stroke-width:2.136317395727365;" width="499.8983" x="591.7599" y="580.0769"/><line style="stroke:#A80036;stroke-width:2.136317395727365;" x1="591.7599" x2="1091.6582" y1="617.5292" y2="617.5292"/><text fill="#000000" font-family="sans-serif" font-size="19.939" lengthAdjust="spacing" textLength="140.9969" x="771.2106" y="605.7058">CapturingRed</text><text fill="#000000" font-family="sans-serif" font-size="17.0905" lengthAdjust="spacing" textLength="471.414" x="598.881" y="640.5141">Button held down while timer counts down 10 seconds</text><text fill="#000000" font-family="sans-serif" font-size="17.0905" lengthAdjust="spacing" textLength="410.1729" x="598.881" y="660.4086">Button released prematurely causes exit to idle</text><text fill="#000000" font-family="sans-serif" font-size="17.0905" lengthAdjust="spacing" textLength="199.3896" x="598.881" y="680.303">Decrement game timer</text></g><g id="GameModeDomination.CapturedRed"><rect fill="#FEFECE" filter="url(#fvzr2822f9b4v)" height="91.4833" rx="17.8026" ry="17.8026" style="stroke:#A80036;stroke-width:2.136317395727365;" width="250.6612" x="774.7711" y="766.6487"/><line style="stroke:#A80036;stroke-width:2.136317395727365;" x1="774.7711" x2="1025.4323" y1="804.101" y2="804.101"/><text fill="#000000" font-family="sans-serif" font-size="19.939" lengthAdjust="spacing" textLength="135.3001" x="832.4517" y="792.2775">CapturedRed</text><text fill="#000000" font-family="sans-serif" font-size="17.0905" lengthAdjust="spacing" textLength="222.177" x="781.8922" y="827.0859">Increment Red team timer</text><text fill="#000000" font-family="sans-serif" font-size="17.0905" lengthAdjust="spacing" textLength="199.3896" x="781.8922" y="846.9803">Decrement game timer</text></g><g id="GameModeDomination.RecaptureBlue"><rect fill="#FEFECE" filter="url(#fvzr2822f9b4v)" height="111.3778" rx="17.8026" ry="17.8026" style="stroke:#A80036;stroke-width:2.136317395727365;" width="524.1099" x="356.0529" y="933.2814"/><line style="stroke:#A80036;stroke-width:2.136317395727365;" x1="356.0529" x2="880.1628" y1="970.7337" y2="970.7337"/><text fill="#000000" font-family="sans-serif" font-size="19.939" lengthAdjust="spacing" textLength="150.9664" x="542.6246" y="958.9103">RecaptureBlue</text><text fill="#000000" font-family="sans-serif" font-size="17.0905" lengthAdjust="spacing" textLength="471.414" x="363.174" y="993.7186">Button held down while timer counts down 10 seconds</text><text fill="#000000" font-family="sans-serif" font-size="17.0905" lengthAdjust="spacing" textLength="495.6256" x="363.174" y="1013.6131">Button released prematurely causes exit to Captured Red</text><text fill="#000000" font-family="sans-serif" font-size="17.0905" lengthAdjust="spacing" textLength="199.3896" x="363.174" y="1033.5075">Decrement game timer</text></g><g id="GameModeDomination.CapturedBlue"><rect fill="#FEFECE" filter="url(#fvzr2822f9b4v)" height="91.4833" rx="17.8026" ry="17.8026" style="stroke:#A80036;stroke-width:2.136317395727365;" width="254.9339" x="398.0671" y="1119.8531"/><line style="stroke:#A80036;stroke-width:2.136317395727365;" x1="398.0671" x2="653.001" y1="1157.3054" y2="1157.3054"/><text fill="#000000" font-family="sans-serif" font-size="19.939" lengthAdjust="spacing" textLength="139.5727" x="455.7477" y="1145.482">CapturedBlue</text><text fill="#000000" font-family="sans-serif" font-size="17.0905" lengthAdjust="spacing" textLength="226.4496" x="405.1882" y="1180.2903">Increment Blue team timer</text><text fill="#000000" font-family="sans-serif" font-size="17.0905" lengthAdjust="spacing" textLength="199.3896" x="405.1882" y="1200.1848">Decrement game timer</text></g><g id="GameModeDomination.CapturingBlue"><rect fill="#FEFECE" filter="url(#fvzr2822f9b4v)" height="111.3778" rx="17.8026" ry="17.8026" style="stroke:#A80036;stroke-width:2.136317395727365;" width="499.8983" x="66.2258" y="580.0769"/><line style="stroke:#A80036;stroke-width:2.136317395727365;" x1="66.2258" x2="566.1241" y1="617.5292" y2="617.5292"/><text fill="#000000" font-family="sans-serif" font-size="19.939" lengthAdjust="spacing" textLength="145.2696" x="243.5402" y="605.7058">CapturingBlue</text><text fill="#000000" font-family="sans-serif" font-size="17.0905" lengthAdjust="spacing" textLength="471.414" x="73.3469" y="640.5141">Button held down while timer counts down 10 seconds</text><text fill="#000000" font-family="sans-serif" font-size="17.0905" lengthAdjust="spacing" textLength="410.1729" x="73.3469" y="660.4086">Button released prematurely causes exit to idle</text><text fill="#000000" font-family="sans-serif" font-size="17.0905" lengthAdjust="spacing" textLength="199.3896" x="73.3469" y="680.303">Decrement game timer</text></g><g id="GameModeDomination.RecaptureRed"><rect fill="#FEFECE" filter="url(#fvzr2822f9b4v)" height="111.3778" rx="17.8026" ry="17.8026" style="stroke:#A80036;stroke-width:2.136317395727365;" width="528.3825" x="341.0987" y="1286.4859"/><line style="stroke:#A80036;stroke-width:2.136317395727365;" x1="341.0987" x2="869.4812" y1="1323.9382" y2="1323.9382"/><text fill="#000000" font-family="sans-serif" font-size="19.939" lengthAdjust="spacing" textLength="146.6938" x="531.943" y="1312.1147">RecaptureRed</text><text fill="#000000" font-family="sans-serif" font-size="17.0905" lengthAdjust="spacing" textLength="471.414" x="348.2197" y="1346.9231">Button held down while timer counts down 10 seconds</text><text fill="#000000" font-family="sans-serif" font-size="17.0905" lengthAdjust="spacing" textLength="499.8983" x="348.2197" y="1366.8175">Button released prematurely causes exit to Captured Blue</text><text fill="#000000" font-family="sans-serif" font-size="17.0905" lengthAdjust="spacing" textLength="199.3896" x="348.2197" y="1386.712">Decrement game timer</text></g><g id="GameModeDomination.GameOver"><rect fill="#FEFECE" filter="url(#fvzr2822f9b4v)" height="111.3778" rx="17.8026" ry="17.8026" style="stroke:#A80036;stroke-width:2.136317395727365;" width="395.9308" x="895.8291" y="1286.4859"/><line style="stroke:#A80036;stroke-width:2.136317395727365;" x1="895.8291" x2="1291.7599" y1="1323.9382" y2="1323.9382"/><text fill="#000000" font-family="sans-serif" font-size="19.939" lengthAdjust="spacing" textLength="108.2401" x="1039.6745" y="1312.1147">GameOver</text><text fill="#000000" font-family="sans-serif" font-size="17.0905" lengthAdjust="spacing" textLength="367.4466" x="902.9502" y="1346.9231">The game timer has counted down to zero</text><text fill="#000000" font-family="sans-serif" font-size="17.0905" lengthAdjust="spacing" textLength="336.1139" x="902.9502" y="1366.8175">Red timer has reached the set duration</text><text fill="#000000" font-family="sans-serif" font-size="17.0905" lengthAdjust="spacing" textLength="340.3866" x="902.9502" y="1386.712">Blue timer has reached the set duration</text></g><!--MD5=[616122c7c618f2359c5f422ce5700dcf]
link *start*GameModeDomination to Idle--><path d="M727.7721,360.9406 C727.7721,372.2602 727.7721,389.432 727.7721,406.1793 " fill="none" id="*start*GameModeDomination-to-Idle" style="stroke:#A80036;stroke-width:1.4242115971515767;"/><polygon fill="#A80036" points="727.7721,413.3117,733.469,400.4938,727.7721,406.1907,722.0753,400.4938,727.7721,413.3117" style="stroke:#A80036;stroke-width:1.4242115971515767;"/><!--MD5=[cd54f098eaf8c0442796e1b6faf927ac]
link Idle to CapturingRed--><path d="M788.8523,504.7717 C796.892,512.5679 804.4004,521.1274 810.3764,530.2295 C818.7351,542.9591 824.939,558.0073 829.515,572.644 " fill="none" id="Idle-to-CapturingRed" style="stroke:#A80036;stroke-width:1.4242115971515767;"/><polygon fill="#A80036" points="831.6328,579.7835,833.4499,565.8749,829.608,572.9564,822.5265,569.1145,831.6328,579.7835" style="stroke:#A80036;stroke-width:1.4242115971515767;"/><text fill="#000000" font-family="sans-serif" font-size="18.5148" lengthAdjust="spacing" textLength="113.9369" x="824.6185" y="548.8395">Red pressed</text><!--MD5=[a6841a8381ec6f2c7067417a6dd9c046]
link CapturingRed to Idle--><path d="M742.762,579.9573 C735.1495,572.3335 728.497,563.8409 723.4995,554.4411 C716.7089,541.6659 715.1266,526.481 715.964,512.0822 " fill="none" id="CapturingRed-to-Idle" style="stroke:#A80036;stroke-width:1.4242115971515767;"/><polygon fill="#A80036" points="716.6077,504.6407,709.8261,516.9193,715.9933,511.7352,721.1773,517.9024,716.6077,504.6407" style="stroke:#A80036;stroke-width:1.4242115971515767;"/><text fill="#000000" font-family="sans-serif" font-size="18.5148" lengthAdjust="spacing" textLength="78.3316" x="724.9237" y="548.8395">released</text><!--MD5=[11ae16ffea919090734929e31c3622a2]
link CapturingRed to CapturedRed--><path d="M860.0244,691.5457 C867.2964,713.1837 875.6195,737.9494 882.789,759.2855 " fill="none" id="CapturingRed-to-CapturedRed" style="stroke:#A80036;stroke-width:1.4242115971515767;"/><polygon fill="#A80036" points="885.1731,766.3795,886.4889,752.4145,882.9042,759.6296,875.6891,756.0448,885.1731,766.3795" style="stroke:#A80036;stroke-width:1.4242115971515767;"/><text fill="#000000" font-family="sans-serif" font-size="18.5148" lengthAdjust="spacing" textLength="123.9064" x="878.7386" y="735.4113">capture timer</text><!--MD5=[20724d04ec740275d947932e7caa581e]
link CapturedRed to RecaptureBlue--><path d="M774.3809,821.4139 C727.7209,830.4704 677.8991,848.4482 643.7436,883.434 C632.5949,894.8548 626.0407,910.3075 622.2523,925.8043 " fill="none" id="CapturedRed-to-RecaptureBlue" style="stroke:#A80036;stroke-width:1.4242115971515767;"/><polygon fill="#A80036" points="620.6999,932.914,629.0007,921.6069,622.2195,925.9569,617.8695,919.1756,620.6999,932.914" style="stroke:#A80036;stroke-width:1.4242115971515767;"/><text fill="#000000" font-family="sans-serif" font-size="18.5148" lengthAdjust="spacing" textLength="116.7854" x="645.1679" y="902.044">Blue pressed</text><!--MD5=[b84ef49a53f0dd94002042bb589fd896]
link CapturedRed to Idle--><path d="M1022.0484,766.6031 C1054.8466,748.48 1086.4028,723.871 1105.1882,691.1654 C1129.7786,648.3522 1134.3518,619.915 1105.1882,580.0769 C1047.0362,500.6401 935.8195,472.6415 849.1164,463.3899 " fill="none" id="CapturedRed-to-Idle" style="stroke:#A80036;stroke-width:1.4242115971515767;"/><polygon fill="#A80036" points="841.8643,462.6535,854.0403,469.6176,848.9488,463.3738,855.1927,458.2824,841.8643,462.6535" style="stroke:#A80036;stroke-width:1.4242115971515767;"/><text fill="#000000" font-family="sans-serif" font-size="18.5148" lengthAdjust="spacing" textLength="185.1475" x="1126.5514" y="642.1254">Red button released</text><!--MD5=[dfdd4bddb83357edde4d573ac3f41ea1]
link RecaptureBlue to CapturedRed--><path d="M720.0572,933.1205 C734.7308,924.8202 749.5369,916.1724 763.3774,907.6456 C786.2431,893.5573 810.5872,877.2643 832.3021,862.2389 " fill="none" id="RecaptureBlue-to-CapturedRed" style="stroke:#A80036;stroke-width:1.4242115971515767;"/><polygon fill="#A80036" points="838.3536,858.0375,824.5756,860.6678,832.5041,862.0986,831.0733,870.0271,838.3536,858.0375" style="stroke:#A80036;stroke-width:1.4242115971515767;"/><text fill="#000000" font-family="sans-serif" font-size="18.5148" lengthAdjust="spacing" textLength="78.3316" x="800.4069" y="902.044">released</text><!--MD5=[d77195c9d74c58bd6eb8cd72e8b7ffca]
link RecaptureBlue to CapturedBlue--><path d="M589.071,1044.7502 C577.4423,1066.5762 564.1174,1091.5854 552.6838,1113.0454 " fill="none" id="RecaptureBlue-to-CapturedBlue" style="stroke:#A80036;stroke-width:1.4242115971515767;"/><polygon fill="#A80036" points="549.2002,1119.584,560.2556,1110.9508,552.549,1113.2994,550.2004,1105.5928,549.2002,1119.584" style="stroke:#A80036;stroke-width:1.4242115971515767;"/><text fill="#000000" font-family="sans-serif" font-size="18.5148" lengthAdjust="spacing" textLength="123.9064" x="576.8057" y="1088.6157">capture timer</text><!--MD5=[a39dc8114d988317ffa1e5850662ff71]
link Idle to CapturingBlue--><path d="M613.4806,463.3329 C544.0702,469.8771 456.3972,487.083 390.234,530.2295 C373.3713,541.2259 359.1506,557.5103 347.8195,573.9443 " fill="none" id="Idle-to-CapturingBlue" style="stroke:#A80036;stroke-width:1.4242115971515767;"/><polygon fill="#A80036" points="343.7762,579.9972,355.6323,572.5015,347.7309,574.0752,346.1572,566.1739,343.7762,579.9972" style="stroke:#A80036;stroke-width:1.4242115971515767;"/><text fill="#000000" font-family="sans-serif" font-size="18.5148" lengthAdjust="spacing" textLength="116.7854" x="391.6582" y="548.8395">Blue pressed</text><!--MD5=[38f78e282babde7191f315a906145e2c]
link CapturingBlue to Idle--><path d="M448.621,580.0029 C469.1495,571.5046 490.0968,562.7756 509.8678,554.4411 C545.4602,539.4371 584.2073,522.8165 619.025,507.7754 " fill="none" id="CapturingBlue-to-Idle" style="stroke:#A80036;stroke-width:1.4242115971515767;"/><polygon fill="#A80036" points="625.9339,504.7888,611.9077,504.646,619.3975,507.6146,616.4289,515.1043,625.9339,504.7888" style="stroke:#A80036;stroke-width:1.4242115971515767;"/><text fill="#000000" font-family="sans-serif" font-size="18.5148" lengthAdjust="spacing" textLength="78.3316" x="565.412" y="548.8395">released</text><!--MD5=[916d7605ca83aea2a63edeff05373c7e]
link CapturingBlue to CapturedBlue--><path d="M305.3567,691.5471 C291.9762,774.0873 278.2297,932.961 343.235,1044.3699 C360.5121,1073.9793 388.3782,1097.6112 417.1786,1115.7884 " fill="none" id="CapturingBlue-to-CapturedBlue" style="stroke:#A80036;stroke-width:1.4242115971515767;"/><polygon fill="#A80036" points="423.3355,1119.5854,415.4153,1108.0085,417.2742,1115.8477,409.435,1117.7066,423.3355,1119.5854" style="stroke:#A80036;stroke-width:1.4242115971515767;"/><text fill="#000000" font-family="sans-serif" font-size="18.5148" lengthAdjust="spacing" textLength="123.9064" x="300.5086" y="902.044">capture timer</text><!--MD5=[57a710961e7804187a3084411aeba4d3]
link CapturedBlue to RecaptureRed--><path d="M487.7554,1211.4712 C478.9139,1227.3013 474.2639,1245.0912 482.8077,1260.8501 C486.6973,1268.0234 491.541,1274.653 497.0399,1280.7623 " fill="none" id="CapturedBlue-to-RecaptureRed" style="stroke:#A80036;stroke-width:1.4242115971515767;"/><polygon fill="#A80036" points="502.2653,1286.2272,497.523,1273.0264,497.3434,1281.0809,489.2889,1280.9014,502.2653,1286.2272" style="stroke:#A80036;stroke-width:1.4242115971515767;"/><text fill="#000000" font-family="sans-serif" font-size="18.5148" lengthAdjust="spacing" textLength="113.9369" x="484.2319" y="1255.2485">Red pressed</text><!--MD5=[d81b3005c6eaf60969597e78b9a7278a]
link CapturedBlue to Idle--><path d="M397.4476,1145.3508 C249.3339,1120.0924 25.6358,1068.9233 25.6358,990.2499 C25.6358,634.197 25.6358,634.197 25.6358,634.197 C25.6358,607.305 31.1459,596.1648 52.6958,580.0769 C138.3381,516.1427 436.0195,483.0369 606.1131,468.9685 " fill="none" id="CapturedBlue-to-Idle" style="stroke:#A80036;stroke-width:1.4242115971515767;"/><polygon fill="#A80036" points="613.613,468.3547,600.3724,463.7244,606.5158,468.9366,601.3035,475.0799,613.613,468.3547" style="stroke:#A80036;stroke-width:1.4242115971515767;"/><text fill="#000000" font-family="sans-serif" font-size="18.5148" lengthAdjust="spacing" textLength="187.9959" x="27.06" y="818.7276">Blue button released</text><!--MD5=[b47edff00b6812a4a507051db9a27995]
link RecaptureRed to CapturedBlue--><path d="M609.9172,1286.3755 C609.3646,1269.7749 606.6757,1251.8847 599.5931,1236.6385 C596.3445,1229.647 592.0519,1223.0102 587.164,1216.812 " fill="none" id="RecaptureRed-to-CapturedBlue" style="stroke:#A80036;stroke-width:1.4242115971515767;"/><polygon fill="#A80036" points="582.5225,1211.2448,586.3578,1224.7371,587.0837,1216.7133,595.1075,1217.4392,582.5225,1211.2448" style="stroke:#A80036;stroke-width:1.4242115971515767;"/><text fill="#000000" font-family="sans-serif" font-size="18.5148" lengthAdjust="spacing" textLength="78.3316" x="609.5626" y="1255.2485">released</text><!--MD5=[0a29ccb67f4e6a9ab41210c7dab7b79e]
link RecaptureRed to CapturedRed--><path d="M861.7919,1286.4252 C879.3453,1278.7396 892.9308,1270.2183 900.1017,1260.8501 C923.5756,1230.1825 910.5597,977.0275 903.5967,865.7667 " fill="none" id="RecaptureRed-to-CapturedRed" style="stroke:#A80036;stroke-width:1.4242115971515767;"/><polygon fill="#A80036" points="903.1054,858.0061,898.2293,871.1582,903.555,865.113,909.6002,870.4387,903.1054,858.0061" style="stroke:#A80036;stroke-width:1.4242115971515767;"/><text fill="#000000" font-family="sans-serif" font-size="18.5148" lengthAdjust="spacing" textLength="123.9064" x="915.7681" y="1088.6157">capture timer</text><!--MD5=[4aae146bbcca512ab3d80e1bb232f199]
link CapturedBlue to GameOver--><path d="M653.0623,1205.8456 C728.6551,1228.9591 825.7536,1258.6485 909.5642,1284.2747 " fill="none" id="CapturedBlue-to-GameOver" style="stroke:#A80036;stroke-width:1.4242115971515767;"/><polygon fill="#A80036" points="916.5998,1286.4261,906.0069,1277.2314,909.7897,1284.3446,902.6765,1288.1275,916.5998,1286.4261" style="stroke:#A80036;stroke-width:1.4242115971515767;"/><text fill="#000000" font-family="sans-serif" font-size="18.5148" lengthAdjust="spacing" textLength="85.4527" x="828.8911" y="1255.2485">Blue wins</text><!--MD5=[9a4969006cbb401788e39a4010a02989]
link CapturedRed to GameOver--><path d="M933.9068,858.2041 C969.374,907.338 1023.8629,990.0647 1052.4924,1070.0057 C1077.1811,1138.9433 1087.1121,1222.9247 1091.107,1278.8669 " fill="none" id="CapturedRed-to-GameOver" style="stroke:#A80036;stroke-width:1.4242115971515767;"/><polygon fill="#A80036" points="1091.6098,1286.2287,1096.4196,1273.0522,1091.1243,1279.1242,1085.0524,1273.8289,1091.6098,1286.2287" style="stroke:#A80036;stroke-width:1.4242115971515767;"/><text fill="#000000" font-family="sans-serif" font-size="18.5148" lengthAdjust="spacing" textLength="82.6043" x="1059.6134" y="1088.6157">Red wins</text><!--MD5=[9c326ed1a4436e38d99d5a2a620d93a7]
link Idle to GameOver--><path d="M841.7489,467.8263 C1026.6444,482.9671 1371.5158,525.7433 1371.5158,634.197 C1371.5158,634.197 1371.5158,634.197 1371.5158,1166.8521 C1371.5158,1219.5138 1335.1841,1256.8113 1288.8033,1282.9699 " fill="none" id="Idle-to-GameOver" style="stroke:#A80036;stroke-width:1.4242115971515767;"/><polygon fill="#A80036" points="1282.4968,1286.4264,1296.4753,1285.262,1288.7416,1283.0041,1290.9996,1275.2704,1282.4968,1286.4264" style="stroke:#A80036;stroke-width:1.4242115971515767;"/><!--MD5=[c69315803817170e0ef6227b429115a2]
link *start to GameModeSelect--><path d="M697.1516,37.3955 C697.1516,55.3392 697.1516,88.2741 697.1516,114.9951 " fill="none" id="*start-to-GameModeSelect" style="stroke:#A80036;stroke-width:1.4242115971515767;"/><polygon fill="#A80036" points="697.1516,122.3497,702.8484,109.5318,697.1516,115.2287,691.4547,109.5318,697.1516,122.3497" style="stroke:#A80036;stroke-width:1.4242115971515767;"/><!--MD5=[93e71d536a5a4788181e337f3f2d135c]
link GameModeSelect to GameModeDomination--><path d="M697.1516,193.7298 C697.1516,213.1974 697.1516,240.0409 697.1516,271.8179 " fill="none" id="GameModeSelect-to-GameModeDomination" style="stroke:#A80036;stroke-width:1.4242115971515767;"/><polygon fill="#A80036" points="697.1516,279.1113,702.8484,266.2934,697.1516,271.9902,691.4547,266.2934,697.1516,279.1113" style="stroke:#A80036;stroke-width:1.4242115971515767;"/><!--MD5=[d537314d2526464ef1d152bb4bb670a3]
@startuml
scale 1400 width
[*] - -> GameModeSelect
GameModeSelect : "Domination" game selected via WiFi
GameModeSelect - -> GameModeDomination

state GameModeDomination {
  [*] - -> Idle
  Idle : Decrement game timer
  Idle : Await button push

  Idle - -> CapturingRed : Red pressed
  CapturingRed : Button held down while timer counts down 10 seconds
  CapturingRed : Button released prematurely causes exit to idle
  CapturingRed : Decrement game timer
  CapturingRed - -> Idle : released
  CapturingRed - -> CapturedRed : capture timer
  CapturedRed : Increment Red team timer
  CapturedRed : Decrement game timer
  CapturedRed - -> RecaptureBlue : Blue pressed
  CapturedRed - -> Idle : Red button released
  RecaptureBlue - -> CapturedRed : released
  RecaptureBlue - -> CapturedBlue : capture timer
  RecaptureBlue : Button held down while timer counts down 10 seconds
  RecaptureBlue : Button released prematurely causes exit to Captured Red
  RecaptureBlue : Decrement game timer


  Idle - -> CapturingBlue : Blue pressed
  CapturingBlue : Button held down while timer counts down 10 seconds
  CapturingBlue : Button released prematurely causes exit to idle
  CapturingBlue : Decrement game timer
  CapturingBlue  - -> Idle : released
  CapturingBlue - -> CapturedBlue : capture timer
  CapturedBlue : Increment Blue team timer
  CapturedBlue : Decrement game timer
  CapturedBlue - -> RecaptureRed : Red pressed
  CapturedBlue - -> Idle : Blue button released
  RecaptureRed - -> CapturedBlue : released
  RecaptureRed - -> CapturedRed : capture timer
  RecaptureRed : Button held down while timer counts down 10 seconds
  RecaptureRed : Button released prematurely causes exit to Captured Blue
  RecaptureRed : Decrement game timer

  GameOver : The game timer has counted down to zero
  GameOver : Red timer has reached the set duration
  GameOver : Blue timer has reached the set duration
  CapturedBlue - -> GameOver : Blue wins
  CapturedRed - -> GameOver : Red wins
  Idle - -> GameOver
}
@enduml

PlantUML version 1.2021.17beta4(Unknown compile time)
(GPL source distribution)
Java Runtime: Java(TM) SE Runtime Environment
JVM: Java HotSpot(TM) 64-Bit Server VM
Default Encoding: UTF-8
Language: en
Country: US
--></g></svg>