<?xml version="1.0" encoding="UTF-8" standalone="no"?><svg xmlns="http://www.w3.org/2000/svg" xmlns:xlink="http://www.w3.org/1999/xlink" contentScriptType="application/ecmascript" contentStyleType="text/css" height="2448.8055px" preserveAspectRatio="none" style="width:1402px;height:2448px;" version="1.1" viewBox="0 0 1402 2448" width="1402.3891px" zoomAndPan="magnify"><defs><filter height="300%" id="f19cs6o86j8m7t" width="300%" x="-1" y="-1"><feGaussianBlur result="blurOut" stdDeviation="4.778156996587031"/><feColorMatrix in="blurOut" result="blurOut2" type="matrix" values="0 0 0 0 0 0 0 0 0 0 0 0 0 0 0 0 0 0 .4 0"/><feOffset dx="9.556313993174061" dy="9.556313993174061" in="blurOut2" result="blurOut3"/><feBlend in="SourceGraphic" in2="blurOut3" mode="normal"/></filter></defs><g><ellipse cx="695.2218" cy="38.2253" fill="#000000" filter="url(#f19cs6o86j8m7t)" rx="23.8908" ry="23.8908" style="stroke:none;stroke-width:2.3890784982935154;"/><g id="GameModeSelect"><rect fill="#FEFECE" filter="url(#f19cs6o86j8m7t)" height="120.0885" rx="29.8635" ry="29.8635" style="stroke:#A80036;stroke-width:3.583617747440273;" width="556.6553" x="416.8942" y="205.4608"/><line style="stroke:#A80036;stroke-width:3.583617747440273;" x1="416.8942" x2="973.5495" y1="268.286" y2="268.286"/><text fill="#000000" font-family="sans-serif" font-size="33.4471" lengthAdjust="spacing" textLength="303.413" x="543.5154" y="248.4525">GameModeSelect</text><text fill="#000000" font-family="sans-serif" font-size="28.6689" lengthAdjust="spacing" textLength="508.8737" x="428.8396" y="306.8426">"Sabotage" game selected via WiFi</text></g><rect fill="#FEFECE" filter="url(#f19cs6o86j8m7t)" height="1953.0717" rx="29.8635" ry="29.8635" style="stroke:#A80036;stroke-width:3.583617747440273;" width="1356.9966" x="16.7235" y="468.2594"/><rect fill="#FFFFFF" height="1875.9119" rx="29.8635" ry="29.8635" style="stroke:#FFFFFF;stroke-width:2.3890784982935154;" width="1342.6621" x="23.8908" y="538.2519"/><line style="stroke:#A80036;stroke-width:3.583617747440273;" x1="16.7235" x2="1373.7201" y1="531.0847" y2="531.0847"/><text fill="#000000" font-family="sans-serif" font-size="33.4471" lengthAdjust="spacing" textLength="358.3618" x="516.041" y="511.2511">GameModeSabotage</text><ellipse cx="671.3311" cy="581.2553" fill="#000000" filter="url(#f19cs6o86j8m7t)" rx="23.8908" ry="23.8908" style="stroke:none;stroke-width:2.3890784982935154;"/><g id="GameModeSabotage.Idle"><rect fill="#FEFECE" filter="url(#f19cs6o86j8m7t)" height="153.461" rx="29.8635" ry="29.8635" style="stroke:#A80036;stroke-width:3.583617747440273;" width="382.2526" x="480.2048" y="693.542"/><line style="stroke:#A80036;stroke-width:3.583617747440273;" x1="480.2048" x2="862.4573" y1="756.3673" y2="756.3673"/><text fill="#000000" font-family="sans-serif" font-size="33.4471" lengthAdjust="spacing" textLength="62.116" x="640.273" y="736.5338">Idle</text><text fill="#000000" font-family="sans-serif" font-size="28.6689" lengthAdjust="spacing" textLength="334.471" x="492.1502" y="794.9239">Decrement game timer</text><text fill="#000000" font-family="sans-serif" font-size="28.6689" lengthAdjust="spacing" textLength="255.6314" x="492.1502" y="828.2963">Await button push</text></g><g id="GameModeSabotage.Arming"><rect fill="#FEFECE" filter="url(#f19cs6o86j8m7t)" height="186.8334" rx="29.8635" ry="29.8635" style="stroke:#A80036;stroke-width:3.583617747440273;" width="838.5666" x="254.4369" y="973.0642"/><line style="stroke:#A80036;stroke-width:3.583617747440273;" x1="254.4369" x2="1093.0034" y1="1035.8895" y2="1035.8895"/><text fill="#000000" font-family="sans-serif" font-size="33.4471" lengthAdjust="spacing" textLength="124.2321" x="611.6041" y="1016.056">Arming</text><text fill="#000000" font-family="sans-serif" font-size="28.6689" lengthAdjust="spacing" textLength="790.785" x="266.3823" y="1074.4461">Button held down while timer counts down 10 seconds</text><text fill="#000000" font-family="sans-serif" font-size="28.6689" lengthAdjust="spacing" textLength="688.0546" x="266.3823" y="1107.8185">Button released prematurely causes exit to idle</text><text fill="#000000" font-family="sans-serif" font-size="28.6689" lengthAdjust="spacing" textLength="334.471" x="266.3823" y="1141.1909">Decrement game timer</text></g><g id="GameModeSabotage.Armed"><rect fill="#FEFECE" filter="url(#f19cs6o86j8m7t)" height="186.8334" rx="29.8635" ry="29.8635" style="stroke:#A80036;stroke-width:3.583617747440273;" width="494.5392" x="426.4505" y="1286.0335"/><line style="stroke:#A80036;stroke-width:3.583617747440273;" x1="426.4505" x2="920.9898" y1="1348.8588" y2="1348.8588"/><text fill="#000000" font-family="sans-serif" font-size="33.4471" lengthAdjust="spacing" textLength="114.6758" x="616.3823" y="1329.0252">Armed</text><text fill="#000000" font-family="sans-serif" font-size="28.6689" lengthAdjust="spacing" textLength="446.7577" x="438.3959" y="1387.4153">reset countdown timer (or not)</text><text fill="#000000" font-family="sans-serif" font-size="28.6689" lengthAdjust="spacing" textLength="410.9215" x="438.3959" y="1420.7878">Decrement countdown timer</text><text fill="#000000" font-family="sans-serif" font-size="28.6689" lengthAdjust="spacing" textLength="334.471" x="438.3959" y="1454.1602">Decrement game timer</text></g><g id="GameModeSabotage.Disarming"><rect fill="#FEFECE" filter="url(#f19cs6o86j8m7t)" height="186.8334" rx="29.8635" ry="29.8635" style="stroke:#A80036;stroke-width:3.583617747440273;" width="838.5666" x="445.5631" y="1599.0028"/><line style="stroke:#A80036;stroke-width:3.583617747440273;" x1="445.5631" x2="1284.1297" y1="1661.8281" y2="1661.8281"/><text fill="#000000" font-family="sans-serif" font-size="33.4471" lengthAdjust="spacing" textLength="172.0137" x="778.8396" y="1641.9945">Disarming</text><text fill="#000000" font-family="sans-serif" font-size="28.6689" lengthAdjust="spacing" textLength="790.785" x="457.5085" y="1700.3846">Button held down while timer counts down 10 seconds</text><text fill="#000000" font-family="sans-serif" font-size="28.6689" lengthAdjust="spacing" textLength="731.058" x="457.5085" y="1733.7571">Button released prematurely causes exit to Armed</text><text fill="#000000" font-family="sans-serif" font-size="28.6689" lengthAdjust="spacing" textLength="334.471" x="457.5085" y="1767.1295">Decrement game timer</text></g><g id="GameModeSabotage.Disarmed"><rect fill="#FEFECE" filter="url(#f19cs6o86j8m7t)" height="153.461" rx="29.8635" ry="29.8635" style="stroke:#A80036;stroke-width:3.583617747440273;" width="530.3754" x="599.6587" y="1911.9721"/><line style="stroke:#A80036;stroke-width:3.583617747440273;" x1="599.6587" x2="1130.0341" y1="1974.7974" y2="1974.7974"/><text fill="#000000" font-family="sans-serif" font-size="33.4471" lengthAdjust="spacing" textLength="162.4573" x="783.6177" y="1954.9638">Disarmed</text><text fill="#000000" font-family="sans-serif" font-size="28.6689" lengthAdjust="spacing" textLength="482.5939" x="611.6041" y="2013.3539">goto GameOver if not re-armable</text><text fill="#000000" font-family="sans-serif" font-size="28.6689" lengthAdjust="spacing" textLength="200.6826" x="611.6041" y="2046.7263">else goto Idle</text></g><g id="GameModeSabotage.GameOver"><rect fill="#FEFECE" filter="url(#f19cs6o86j8m7t)" height="186.8334" rx="29.8635" ry="29.8635" style="stroke:#A80036;stroke-width:3.583617747440273;" width="664.1638" x="45.3925" y="2191.4942"/><line style="stroke:#A80036;stroke-width:3.583617747440273;" x1="45.3925" x2="709.5563" y1="2254.3195" y2="2254.3195"/><text fill="#000000" font-family="sans-serif" font-size="33.4471" lengthAdjust="spacing" textLength="181.57" x="286.6894" y="2234.486">GameOver</text><text fill="#000000" font-family="sans-serif" font-size="28.6689" lengthAdjust="spacing" textLength="616.3823" x="57.3379" y="2292.8761">The game timer has counted down to zero</text><text fill="#000000" font-family="sans-serif" font-size="28.6689" lengthAdjust="spacing" textLength="568.6007" x="57.3379" y="2326.2485">The countdown timer has reached zero</text><text fill="#000000" font-family="sans-serif" font-size="28.6689" lengthAdjust="spacing" textLength="542.3208" x="57.3379" y="2359.621">The defending team disarmed device</text></g><!--MD5=[c4b7006b6d756005ee53709a3e86eedc]
link *start*GameModeSabotage to Idle--><path d="M671.3311,605.4686 C671.3311,624.457 671.3311,653.2622 671.3311,681.3553 " fill="none" id="*start*GameModeSabotage-to-Idle" style="stroke:#A80036;stroke-width:2.3890784982935154;"/><polygon fill="#A80036" points="671.3311,693.3198,680.8874,671.8181,671.3311,681.3744,661.7747,671.8181,671.3311,693.3198" style="stroke:#A80036;stroke-width:2.3890784982935154;"/><!--MD5=[e248e6517beed74d632aa5f2b3a48376]
link Idle to Arming--><path d="M571.0614,847.1287 C550.3195,871.7386 537.8532,900.4362 549.4881,930.0608 C553.9198,941.3468 559.7993,952.2458 566.5986,962.6215 " fill="none" id="Idle-to-Arming" style="stroke:#A80036;stroke-width:2.3890784982935154;"/><polygon fill="#A80036" points="573.6823,972.8205,569.2645,949.7093,566.8676,963.0097,553.5671,960.6128,573.6823,972.8205" style="stroke:#A80036;stroke-width:2.3890784982935154;"/><text fill="#000000" font-family="sans-serif" font-size="31.058" lengthAdjust="spacing" textLength="191.1263" x="551.8771" y="920.6643">Red pressed</text><!--MD5=[9951e13eca4a194347165fea07798e37]
link Arming to Idle--><path d="M736.1659,972.8516 C747.4471,946.371 753.4102,917.1144 745.3925,889.4465 C742.2962,878.7601 737.9003,868.112 732.7734,857.839 " fill="none" id="Arming-to-Idle" style="stroke:#A80036;stroke-width:2.3890784982935154;"/><polygon fill="#A80036" points="726.9536,846.854,728.5804,870.3274,732.5482,857.4083,745.4673,861.376,726.9536,846.854" style="stroke:#A80036;stroke-width:2.3890784982935154;"/><text fill="#000000" font-family="sans-serif" font-size="31.058" lengthAdjust="spacing" textLength="131.3993" x="752.5597" y="920.6643">released</text><!--MD5=[4e7bd3e2c9ef9e176bc85cacc98b3e2a]
link Arming to Armed--><path d="M673.7201,1159.4291 C673.7201,1195.1601 673.7201,1236.3908 673.7201,1273.2734 " fill="none" id="Arming-to-Armed" style="stroke:#A80036;stroke-width:2.3890784982935154;"/><polygon fill="#A80036" points="673.7201,1285.6011,683.2765,1264.0994,673.7201,1273.6557,664.1638,1264.0994,673.7201,1285.6011" style="stroke:#A80036;stroke-width:2.3890784982935154;"/><text fill="#000000" font-family="sans-serif" font-size="31.058" lengthAdjust="spacing" textLength="198.2935" x="676.1092" y="1233.6336">arming timer</text><!--MD5=[d47987657c54f2b792e2540b1c9431f8]
link Armed to Disarming--><path d="M780.2038,1472.7901 C792.1348,1486.2072 803.2297,1500.5417 812.2867,1515.385 C825.4505,1536.9608 835.5181,1562.0628 843.1392,1586.386 " fill="none" id="Armed-to-Disarming" style="stroke:#A80036;stroke-width:2.3890784982935154;"/><polygon fill="#A80036" points="846.687,1598.2454,849.674,1574.9061,843.2605,1586.802,831.3646,1580.3886,846.687,1598.2454" style="stroke:#A80036;stroke-width:2.3890784982935154;"/><text fill="#000000" font-family="sans-serif" font-size="31.058" lengthAdjust="spacing" textLength="195.9044" x="836.1775" y="1546.6029">Blue pressed</text><!--MD5=[086c7ee3d68c6dd370e8316d364298c1]
link Disarming to Armed--><path d="M698.8652,1598.8021 C686.0956,1586.0134 674.9362,1571.7673 666.5529,1555.9994 C655.0614,1534.3854 651.5375,1509.0444 652.0942,1484.4847 " fill="none" id="Disarming-to-Armed" style="stroke:#A80036;stroke-width:2.3890784982935154;"/><polygon fill="#A80036" points="652.6771,1472.5082,642.0818,1493.5174,652.0935,1484.4394,661.1716,1494.4511,652.6771,1472.5082" style="stroke:#A80036;stroke-width:2.3890784982935154;"/><text fill="#000000" font-family="sans-serif" font-size="31.058" lengthAdjust="spacing" textLength="131.3993" x="668.942" y="1546.6029">released</text><!--MD5=[07b88a6f35e3d68e0b8d95277ae00fed]
link Disarming to Disarmed--><path d="M864.8464,1785.9888 C864.8464,1821.9707 864.8464,1863.1082 864.8464,1898.684 " fill="none" id="Disarming-to-Disarmed" style="stroke:#A80036;stroke-width:2.3890784982935154;"/><polygon fill="#A80036" points="864.8464,1911.5205,874.4027,1890.0188,864.8464,1899.5751,855.2901,1890.0188,864.8464,1911.5205" style="stroke:#A80036;stroke-width:2.3890784982935154;"/><text fill="#000000" font-family="sans-serif" font-size="31.058" lengthAdjust="spacing" textLength="241.2969" x="867.2355" y="1859.5721">disarming timer</text><!--MD5=[afc95ecfbfce2d2aa935dfb96ae95374]
link Disarmed to Idle--><path d="M1130.6362,1927.0901 C1244.6836,1884.6076 1352.2184,1813.1192 1352.2184,1694.5659 C1352.2184,1063.8492 1352.2184,1063.8492 1352.2184,1063.8492 C1352.2184,854.1454 1075.8904,793.3386 875.3034,776.8229 " fill="none" id="Disarmed-to-Idle" style="stroke:#A80036;stroke-width:2.3890784982935154;"/><polygon fill="#A80036" points="862.8085,775.8434,883.4995,787.0474,874.7175,776.775,884.99,767.993,862.8085,775.8434" style="stroke:#A80036;stroke-width:2.3890784982935154;"/><!--MD5=[eb903ef6dcf7760597d4b574fd3fa941]
link Disarmed to GameOver--><path d="M740.6,2065.1144 C679.5638,2101.6171 605.2468,2146.0623 539.7812,2185.2131 " fill="none" id="Disarmed-to-GameOver" style="stroke:#A80036;stroke-width:2.3890784982935154;"/><polygon fill="#A80036" points="529.3553,2191.4491,552.7132,2188.6112,539.6063,2185.3165,542.9011,2172.2096,529.3553,2191.4491" style="stroke:#A80036;stroke-width:2.3890784982935154;"/><text fill="#000000" font-family="sans-serif" font-size="31.058" lengthAdjust="spacing" textLength="238.9078" x="668.942" y="2139.0943">Defenders wins</text><!--MD5=[f68d6b7b1b8a90fc200b7b5d1076e0f1]
link Armed to GameOver--><path d="M530.4519,1472.6994 C488.5092,1506.9564 447.3765,1549.7233 422.8669,1599.0028 C329.5949,1786.5454 343.2055,2039.5751 360.7604,2179.1257 " fill="none" id="Armed-to-GameOver" style="stroke:#A80036;stroke-width:2.3890784982935154;"/><polygon fill="#A80036" points="362.3563,2191.4462,369.0688,2168.8943,360.8205,2179.6,350.1148,2171.3516,362.3563,2191.4462" style="stroke:#A80036;stroke-width:2.3890784982935154;"/><text fill="#000000" font-family="sans-serif" font-size="31.058" lengthAdjust="spacing" textLength="224.5734" x="360.7509" y="1859.5721">Attackers wins</text><!--MD5=[9c326ed1a4436e38d99d5a2a620d93a7]
link Idle to GameOver--><path d="M479.7628,793.7304 C318.7413,823.5796 114.6758,894.7622 114.6758,1063.8492 C114.6758,1063.8492 114.6758,1063.8492 114.6758,1990.8116 C114.6758,2067.7734 165.8403,2133.5639 223.0181,2183.0586 " fill="none" id="Idle-to-GameOver" style="stroke:#A80036;stroke-width:2.3890784982935154;"/><polygon fill="#A80036" points="232.2395,2190.8616,221.9988,2169.6773,223.1208,2183.1453,209.6527,2184.2672,232.2395,2190.8616" style="stroke:#A80036;stroke-width:2.3890784982935154;"/><text fill="#000000" font-family="sans-serif" font-size="31.058" lengthAdjust="spacing" textLength="222.1843" x="117.0648" y="1546.6029">Defenders win</text><!--MD5=[c69315803817170e0ef6227b429115a2]
link *start to GameModeSelect--><path d="M695.2218,62.73 C695.2218,92.83 695.2218,148.0775 695.2218,192.9014 " fill="none" id="*start-to-GameModeSelect" style="stroke:#A80036;stroke-width:2.3890784982935154;"/><polygon fill="#A80036" points="695.2218,205.2386,704.7782,183.7369,695.2218,193.2932,685.6655,183.7369,695.2218,205.2386" style="stroke:#A80036;stroke-width:2.3890784982935154;"/><!--MD5=[26d88244db88e7deaa9cf77f477091ab]
link GameModeSelect to GameModeSabotage--><path d="M695.2218,325.0652 C695.2218,357.6331 695.2218,402.5 695.2218,455.6546 " fill="none" id="GameModeSelect-to-GameModeSabotage" style="stroke:#A80036;stroke-width:2.3890784982935154;"/><polygon fill="#A80036" points="695.2218,467.8556,704.7782,446.3539,695.2218,455.9102,685.6655,446.3539,695.2218,467.8556" style="stroke:#A80036;stroke-width:2.3890784982935154;"/><!--MD5=[67b4657b50d6d5cdce03b7a5bb3bc813]
@startuml
scale 1400 width
[*] - -> GameModeSelect
GameModeSelect : "Sabotage" game selected via WiFi
GameModeSelect - -> GameModeSabotage

state GameModeSabotage {
  [*] - -> Idle
  Idle : Decrement game timer
  Idle : Await button push

  Idle - -> Arming : Red pressed
  Arming : Button held down while timer counts down 10 seconds
  Arming : Button released prematurely causes exit to idle
  Arming : Decrement game timer
  Arming - -> Idle : released
  Arming - -> Armed : arming timer
  Armed : reset countdown timer (or not)
  Armed : Decrement countdown timer
  Armed : Decrement game timer
  Armed - -> Disarming : Blue pressed
  Disarming - -> Armed : released
  Disarming - -> Disarmed : disarming timer
  Disarming : Button held down while timer counts down 10 seconds
  Disarming : Button released prematurely causes exit to Armed
  Disarming : Decrement game timer
  Disarmed - -> Idle 
  Disarmed : goto GameOver if not re-armable
  Disarmed : else goto Idle


  GameOver : The game timer has counted down to zero
  GameOver : The countdown timer has reached zero
  GameOver : The defending team disarmed device
  Disarmed - -> GameOver : Defenders wins
  Armed - -> GameOver : Attackers wins
  Idle - -> GameOver : Defenders win
}
@enduml

PlantUML version 1.2021.5beta3(Unknown compile time)
(GPL source distribution)
Java Runtime: Java(TM) SE Runtime Environment
JVM: Java HotSpot(TM) 64-Bit Server VM
Default Encoding: UTF-8
Language: en
Country: US
--></g></svg>